<svg preserveAspectRatio="none" overflow="visible" style="display: block;" width="1443" height="219" viewBox="0 0 1443 219" fill="none" xmlns="http://www.w3.org/2000/svg">
<g id="Screenshot 2569-08-18 at 10.59.26 1 [Vectorized]" clip-path="url(#clip0_12547_158963)">
<path id="Vector" d="M0 -5H3.72708H1438.96H1439.37H1443V219H1439.17H1434.21H1295.34H1293.54H1151.74H940.515H722.092H649.372H578.011H434.102H4.38592H3.66736H0V-5Z" fill="#07882B"/>
<path id="Vector_2" d="M863.778 -0.655245L1011.23 -0.652682L1080.11 -0.658203V71.6577L1080.14 121.036C1080.14 127.561 1079.75 139.594 1080.18 145.764C1103.56 145.723 1128.73 146.211 1151.91 145.66L1151.93 194.984C1151.93 200.42 1152.26 214.205 1151.74 219.001H940.515H722.092L721.951 218.494C720.451 213.618 721.529 157.382 721.564 148.746L721.465 145.639L721.458 72.5092L721.648 71.7704C720.866 48.9468 721.507 22.4549 721.529 -0.645266L863.778 -0.655245Z" fill="#B67BFE"/>
<path id="Vector_3" d="M863.775 -0.65625L1011.22 -0.653687L1011.18 39.2193L939.596 39.2123L939.659 75.5027L867.988 75.5566L867.981 112.119C844.272 112.115 819.858 112.43 796.212 112.093L796.191 148.751L721.56 148.745L721.462 145.638L721.455 72.5082L721.645 71.7694C720.863 48.9458 721.504 22.4539 721.525 -0.64627L863.775 -0.65625Z" fill="#B67BFE"/>
<path id="Vector_4" d="M721.525 -0.64627L863.775 -0.65625L863.782 34.8208L792.365 34.8042L792.428 71.6567C769.747 71.6445 744.079 71.027 721.645 71.7694C720.863 48.9458 721.504 22.4539 721.525 -0.64627Z" fill="#07882B"/>
<path id="Vector_5" d="M1011.23 -0.652682L1080.11 -0.658203V71.6577L1007.36 71.6383L1007.4 107.852H935.505L935.569 144.664C911.747 144.667 887.516 144.424 863.729 144.685L863.778 181.003L792.368 180.999C792.382 193.447 792.53 206.132 792.396 218.557C770.011 218.553 744.026 219.232 721.951 218.494C720.451 213.618 721.529 157.382 721.564 148.746L796.194 148.752L796.215 112.094C819.861 112.431 844.275 112.116 867.985 112.12L867.992 75.5576L939.663 75.5037L939.599 39.2133L1011.18 39.2203L1011.23 -0.652682Z" fill="#07882B"/>
<path id="Vector_6" d="M1080.18 145.762C1103.56 145.721 1128.73 146.21 1151.92 145.658L1151.94 194.983C1151.94 200.419 1152.26 214.204 1151.74 219H940.518L940.37 218.34C939.052 215.937 939.595 190.346 939.595 185.202L1011.18 185.191L1011.2 148.765L1079.98 148.727L1080.18 145.762Z" fill="#07882B"/>
<path id="Vector_7" d="M1080.18 145.762C1103.56 145.721 1128.73 146.21 1151.91 145.658L1151.93 194.983C1151.93 200.419 1152.26 214.204 1151.74 219H940.515L940.367 218.34C951.937 217.348 974.97 218.094 987.363 218.094L1080.12 218.099C1080.13 195.408 1080.52 171.303 1079.97 148.727L1080.18 145.762Z" fill="#11C03F"/>
<path id="Vector_8" d="M1438.96 -5H1439.37H1443V219H1439.17H1434.21H1295.34H1293.54H1151.74C1152.26 214.204 1151.93 200.419 1151.93 194.983L1151.91 145.659C1128.73 146.21 1103.56 145.722 1080.18 145.763C1079.75 139.593 1080.14 127.561 1080.14 121.035L1080.11 71.6568V-0.659081L1223.78 -0.659009L1295.42 -0.659713C1333.18 -0.645784 1397.48 -0.473671 1437.79 -0.80794C1438.17 -1.15312 1438.51 -1.45149 1438.79 -1.70307L1438.96 -5Z" fill="#B67BFE"/>
<path id="Vector_9" d="M1080.11 -0.658203L1223.78 -0.658131C1223.77 23.1491 1224.27 48.8592 1223.73 72.4956C1223.64 95.3443 1222.89 123.331 1223.75 145.689C1200.51 145.148 1175.31 145.655 1151.91 145.66C1128.73 146.211 1103.56 145.723 1080.18 145.764C1079.75 139.594 1080.14 127.562 1080.14 121.036L1080.11 71.6577V-0.658203Z" fill="#B67BFE"/>
<path id="Vector_10" d="M1151.96 72.5343L1223.73 72.4941C1223.64 95.3429 1222.89 123.33 1223.75 145.688C1200.51 145.146 1175.31 145.654 1151.91 145.658C1152.23 121.529 1151.94 96.7199 1151.96 72.5343Z" fill="#11C03F"/>
<path id="Vector_11" d="M1151.91 145.659C1175.3 145.655 1200.51 145.148 1223.74 145.689C1247.11 145.693 1272.25 146.192 1295.46 145.661C1295.46 169.342 1296.01 195.526 1295.34 219.001H1293.54H1151.73C1152.26 214.205 1151.93 200.42 1151.93 194.984L1151.91 145.659Z" fill="#B67BFE"/>
<path id="Vector_12" d="M1223.74 145.688C1247.11 145.692 1272.25 146.191 1295.46 145.66C1295.46 169.342 1296.01 195.525 1295.34 219H1293.54C1288.4 217.452 1233.36 218.597 1223.78 218.625L1223.74 145.688Z" fill="#11C03F"/>
<path id="Vector_13" d="M1223.73 72.4947C1247.23 72.4918 1272.16 72.0359 1295.52 72.5112C1295.6 95.6751 1296.26 122.814 1295.47 145.66C1272.25 146.191 1247.12 145.692 1223.75 145.688C1222.9 123.33 1223.64 95.3434 1223.73 72.4947Z" fill="#B67BFE"/>
<path id="Vector_14" d="M1295.53 72.5117L1367.23 72.5275L1367.22 145.658L1295.47 145.661C1296.26 122.815 1295.6 95.6756 1295.53 72.5117Z" fill="#11C03F"/>
<path id="Vector_15" d="M1367.39 145.702L1439.2 145.697C1439.2 169.736 1439.61 195.079 1439.17 218.999H1434.21C1430.71 218.364 1416.18 218.546 1411.9 218.548L1367.4 218.602L1367.39 145.702Z" fill="#11C03F"/>
<path id="Vector_16" d="M1223.78 -0.659453L1295.43 -0.660156C1295.44 21.3807 1294.56 50.9383 1295.52 72.5107C1272.16 72.0354 1247.23 72.4913 1223.73 72.4942C1224.27 48.8578 1223.78 23.1478 1223.78 -0.659453Z" fill="#11C03F"/>
<path id="Vector_17" d="M506.02 -0.643491L577.789 -0.652344L721.526 -0.645459C721.505 22.4547 720.863 48.9466 721.646 71.7702L721.455 72.509L721.462 145.639L721.561 148.746C721.526 157.382 720.448 213.618 721.949 218.494L722.089 219.001H649.369H578.009H434.1C434.378 194.758 434.133 170.004 434.145 145.718L362.874 145.728L362.844 -0.652207L506.02 -0.643491Z" fill="#BBA10B"/>
<path id="Vector_18" d="M721.468 145.638L721.567 148.746C721.531 157.382 720.453 213.618 721.954 218.494L722.095 219.001H649.375C649.926 215.137 649.632 199.894 649.627 195.086L649.631 145.69C673.097 145.237 697.89 145.647 721.468 145.638Z" fill="#BBA10B"/>
<path id="Vector_19" d="M577.824 145.725L649.628 145.689L649.623 195.085C649.628 199.893 649.922 215.136 649.371 219H578.01C577.483 215.259 577.777 200.479 577.779 195.779L577.824 145.725Z" fill="#11C03F"/>
<path id="Vector_20" d="M506.026 -0.643491L577.796 -0.652344L577.785 72.4889L506 72.504L506.026 -0.643491Z" fill="#11C03F"/>
<path id="Vector_21" d="M649.652 72.548L721.454 72.5078L721.461 145.637C697.884 145.646 673.091 145.236 649.625 145.689C649.989 121.651 649.648 96.6646 649.652 72.548Z" fill="#11C03F"/>
<path id="Vector_22" d="M505.998 72.5039C505.329 95.698 505.945 122.169 505.939 145.629L434.273 145.622C434.606 121.513 434.326 96.7031 434.343 72.5362L505.998 72.5039Z" fill="#11C03F"/>
<path id="Vector_23" d="M3.72656 -5H1438.96L1438.79 -1.70307C1438.51 -1.45149 1438.17 -1.15312 1437.79 -0.80794C1397.48 -0.473671 1333.18 -0.645784 1295.42 -0.659713L1223.78 -0.659009L1080.11 -0.659081L1011.23 -0.65356L863.777 -0.656123L721.528 -0.646143L577.791 -0.653029L506.022 -0.644176L362.846 -0.652892L254.981 -0.648627L219.195 -0.651916L111.382 -0.643021L75.5745 -0.65295C52.0945 -0.62775 27.1494 -0.181954 3.78778 -0.757627L3.72656 -5Z" fill="#EBECEC"/>
<path id="Vector_24" d="M362.873 145.726L434.144 145.717C434.132 170.002 434.377 194.757 434.099 218.999H4.38281C7.6987 217.481 41.5213 218.083 47.844 218.084L125.961 218.098L362.892 218.092L362.873 145.726Z" fill="#11C03F"/>
<path id="Vector_25" d="M3.74219 72.5221L40.0202 72.5156L39.9948 109.266L3.78875 109.26L3.74219 72.5221Z" fill="#BBA10B"/>
<path id="Vector_26" d="M75.5781 -0.652344L111.385 -0.642415L111.403 36.0535L75.5852 36.1047L75.5781 -0.652344Z" fill="#BBA10B"/>
<path id="Vector_27" d="M219.196 -0.652344L254.982 -0.649056L254.996 36.0628L219.18 36.0845L219.196 -0.652344Z" fill="#BBA10B"/>
<path id="Vector_28" d="M147.375 72.5182L183.186 72.5117L183.179 109.271L147.379 109.286L147.375 72.5182Z" fill="#BBA10B"/>
<path id="Vector_29" d="M291.016 72.5239L326.818 72.5117L326.796 109.23L291.016 109.284L291.016 72.5239Z" fill="#BBA10B"/>
<path id="Vector_30" d="M219.185 145.725L254.999 145.688L254.988 182.314L219.18 182.324L219.185 145.725Z" fill="#BBA10B"/>
<path id="Vector_31" d="M75.5703 145.691H111.399L111.386 182.286L75.6154 182.324L75.5703 145.691Z" fill="#BBA10B"/>
</g>
<defs>
<clipPath id="clip0_12547_158963">
<rect width="1443" height="219" fill="white"/>
</clipPath>
</defs>
</svg>
