<svg width="42" height="30" viewBox="0 0 42 30" fill="none" xmlns="http://www.w3.org/2000/svg">
<rect x="18" y="23.9999" width="8.48524" height="8.48524" transform="rotate(-45 18 23.9999)" fill="url(#paint0_linear_1051_910)"/>
<rect x="24" y="17.9999" width="8.48524" height="8.48524" transform="rotate(-45 24 17.9999)" fill="url(#paint1_linear_1051_910)"/>
<rect y="17.9999" width="8.48524" height="8.48524" transform="rotate(-45 0 17.9999)" fill="url(#paint2_linear_1051_910)"/>
<rect x="6" y="11.9999" width="8.48524" height="8.48524" transform="rotate(-45 6 11.9999)" fill="url(#paint3_linear_1051_910)"/>
<rect width="8.48524" height="8.48524" transform="matrix(-0.707107 0.707107 0.707107 0.707107 24 5.99997)" fill="#A7C5FF"/>
<rect x="12" y="5.99997" width="8.48524" height="8.48524" transform="rotate(-45 12 5.99997)" fill="url(#paint4_linear_1051_910)"/>
<rect x="30" y="11.9999" width="8.48524" height="8.48524" transform="rotate(-45 30 11.9999)" fill="url(#paint5_linear_1051_910)"/>
<rect width="8.48524" height="8.48524" transform="matrix(-0.707107 0.707107 0.707107 0.707107 18.002 12.0018)" fill="#1C1C1C"/>
<mask id="mask0_1051_910" style="mask-type:luminance" maskUnits="userSpaceOnUse" x="12" y="12" width="13" height="13">
<rect width="8.48524" height="8.48524" transform="matrix(-0.707107 0.707107 0.707107 0.707107 18.001 12.0019)" fill="white"/>
</mask>
<g mask="url(#mask0_1051_910)">
<rect width="15.8391" height="15.8391" rx="7.91955" transform="matrix(-0.707107 0.707107 0.707107 0.707107 18.0576 1.70639)" fill="#FF5454"/>
</g>
<defs>
<linearGradient id="paint0_linear_1051_910" x1="17.8853" y1="28.3572" x2="26.4852" y2="28.5572" gradientUnits="userSpaceOnUse">
<stop stop-color="#8155FF"/>
<stop offset="1" stop-color="#DD7CFF"/>
</linearGradient>
<linearGradient id="paint1_linear_1051_910" x1="24" y1="22.1572" x2="32.4" y2="22.1572" gradientUnits="userSpaceOnUse">
<stop stop-color="#DD7CFF"/>
<stop offset="1" stop-color="#E9AAFF"/>
</linearGradient>
<linearGradient id="paint2_linear_1051_910" x1="0.170562" y1="22.3278" x2="8.37052" y2="22.5278" gradientUnits="userSpaceOnUse">
<stop stop-color="#3C67FF"/>
<stop offset="1" stop-color="#538DFF"/>
</linearGradient>
<linearGradient id="paint3_linear_1051_910" x1="6.28528" y1="16.5278" x2="14.2852" y2="16.5278" gradientUnits="userSpaceOnUse">
<stop stop-color="#538DFF"/>
<stop offset="1" stop-color="#83ADFF"/>
</linearGradient>
<linearGradient id="paint4_linear_1051_910" x1="12" y1="10.3279" x2="20.8" y2="10.3279" gradientUnits="userSpaceOnUse">
<stop stop-color="#83ADFF"/>
<stop offset="1" stop-color="#A7C5FF"/>
</linearGradient>
<linearGradient id="paint5_linear_1051_910" x1="29.9147" y1="16.1573" x2="38.7147" y2="16.1573" gradientUnits="userSpaceOnUse">
<stop stop-color="#E9AAFF"/>
<stop offset="1" stop-color="#F5DAFF"/>
</linearGradient>
</defs>
</svg>
