<svg width="24" height="24" viewBox="0 0 24 24" fill="none" xmlns="http://www.w3.org/2000/svg">
<mask id="mask0_1854_5240" style="mask-type:alpha" maskUnits="userSpaceOnUse" x="0" y="0" width="24" height="24">
<rect width="24" height="24" fill="#D9D9D9"/>
</mask>
<g mask="url(#mask0_1854_5240)">
<path d="M12.0996 3.59961C13.2688 3.59961 14.3688 3.82672 15.3996 4.28094C16.4303 4.73514 17.3316 5.3551 18.1034 6.14082C18.8752 6.92655 19.4842 7.8441 19.9303 8.89347C20.3765 9.94283 20.5996 11.0627 20.5996 12.253C20.5996 13.4434 20.3765 14.5632 19.9303 15.6126C19.4842 16.6619 18.8752 17.5795 18.1034 18.3652C17.3316 19.1509 16.4303 19.7709 15.3996 20.2251C14.3688 20.6793 13.2688 20.9064 12.0996 20.9064C11.6573 20.9064 11.2153 20.8686 10.7736 20.7929C10.3319 20.7171 9.90342 20.6069 9.48803 20.462C9.29573 20.3967 9.16337 20.2714 9.09093 20.0861C9.01848 19.9008 9.0329 19.7187 9.13418 19.5399C9.23547 19.3506 9.38835 19.2129 9.59283 19.1268C9.79732 19.0407 10.006 19.025 10.2188 19.0798C10.5162 19.1764 10.8281 19.2505 11.1544 19.302C11.4807 19.3536 11.7957 19.3794 12.0996 19.3794C14.0329 19.3794 15.6829 18.6837 17.0496 17.2924C18.4163 15.901 19.0996 14.2212 19.0996 12.253C19.0996 10.2848 18.4163 8.605 17.0496 7.21366C15.6829 5.82233 14.0329 5.12666 12.0996 5.12666C10.1663 5.12666 8.51625 5.82233 7.14958 7.21366C5.78292 8.605 5.09958 10.2848 5.09958 12.253C5.09958 12.5819 5.1217 12.9001 5.16593 13.2075C5.21017 13.5148 5.28293 13.8232 5.38421 14.1325C5.42779 14.3492 5.41048 14.5554 5.33228 14.7512C5.25408 14.947 5.11371 15.0827 4.91116 15.1584C4.70859 15.2341 4.51372 15.2246 4.32653 15.13C4.13937 15.0354 4.01886 14.885 3.96501 14.6788C3.84321 14.2937 3.75186 13.8937 3.69096 13.4786C3.63006 13.0636 3.59961 12.655 3.59961 12.253C3.59961 11.0627 3.82269 9.94283 4.26886 8.89347C4.71501 7.8441 5.32398 6.92655 6.09576 6.14082C6.86756 5.3551 7.76884 4.73514 8.79961 4.28094C9.83036 3.82672 10.9304 3.59961 12.0996 3.59961ZM13.3496 12.0533L5.21881 20.3308C5.08036 20.4718 4.90633 20.5439 4.69671 20.5472C4.48711 20.5504 4.30987 20.4783 4.16498 20.3308C4.02012 20.1833 3.94768 20.0045 3.94768 19.7944C3.94768 19.5843 4.02012 19.4055 4.16498 19.258L12.2958 10.9804H9.09958C8.88677 10.9804 8.70857 10.9073 8.56498 10.7612C8.4214 10.615 8.34961 10.4336 8.34961 10.2169C8.34961 10.0003 8.4214 9.81884 8.56498 9.67267C8.70857 9.52649 8.88677 9.4534 9.09958 9.4534H13.9457C14.2034 9.4534 14.4185 9.54117 14.5909 9.71672C14.7633 9.89227 14.8496 10.1112 14.8496 10.3735V15.3072C14.8496 15.5238 14.7778 15.7052 14.6342 15.8514C14.4906 15.9976 14.3124 16.0707 14.0996 16.0707C13.8868 16.0707 13.7086 15.9976 13.565 15.8514C13.4214 15.7052 13.3496 15.5238 13.3496 15.3072V12.0533Z" fill="#1C1C1C"/>
</g>
</svg>
