<svg width="40" height="40" viewBox="0 0 40 40" fill="none" xmlns="http://www.w3.org/2000/svg">
<mask id="mask0_1063_931" style="mask-type:alpha" maskUnits="userSpaceOnUse" x="0" y="0" width="40" height="40">
<rect width="40" height="40" fill="#D9D9D9"/>
</mask>
<g mask="url(#mask0_1063_931)">
<path d="M20.1666 5C22.1153 5 23.9487 5.37852 25.6666 6.13555C27.3845 6.89256 28.8867 7.92582 30.173 9.23535C31.4593 10.5449 32.4743 12.0742 33.2178 13.8231C33.9614 15.572 34.3333 17.4384 34.3333 19.4223C34.3333 21.4062 33.9614 23.2727 33.2178 25.0216C32.4743 26.7705 31.4593 28.2998 30.173 29.6093C28.8867 30.9189 27.3845 31.9521 25.6666 32.7091C23.9487 33.4662 22.1153 33.8447 20.1666 33.8447C19.4294 33.8447 18.6928 33.7816 17.9567 33.6554C17.2206 33.5292 16.5063 33.3454 15.814 33.104C15.4935 32.9952 15.2729 32.7864 15.1522 32.4775C15.0315 32.1686 15.0555 31.8651 15.2243 31.5671C15.3931 31.2517 15.6479 31.0222 15.9887 30.8786C16.3295 30.7351 16.6773 30.709 17.032 30.8003C17.5277 30.9613 18.0475 31.0848 18.5913 31.1707C19.1351 31.2566 19.6602 31.2996 20.1666 31.2996C23.3888 31.2996 26.1388 30.1402 28.4166 27.8213C30.6944 25.5024 31.8333 22.7027 31.8333 19.4223C31.8333 16.142 30.6944 13.3423 28.4166 11.0234C26.1388 8.70453 23.3888 7.54508 20.1666 7.54508C16.9444 7.54508 14.1944 8.70453 11.9166 11.0234C9.63885 13.3423 8.49996 16.142 8.49996 19.4223C8.49996 19.9705 8.53682 20.5008 8.61054 21.0131C8.68426 21.5254 8.80553 22.0393 8.97433 22.5549C9.04697 22.916 9.01812 23.2596 8.88779 23.586C8.75746 23.9122 8.5235 24.1385 8.18592 24.2646C7.84831 24.3908 7.52351 24.375 7.21154 24.2173C6.8996 24.0596 6.69875 23.8089 6.609 23.4652C6.406 22.8235 6.25375 22.1567 6.15225 21.465C6.05075 20.7732 6 20.0924 6 19.4223C6 17.4384 6.37181 15.572 7.11542 13.8231C7.859 12.0742 8.87394 10.5449 10.1602 9.23535C11.4466 7.92582 12.9487 6.89256 14.6667 6.13555C16.3846 5.37852 18.2179 5 20.1666 5ZM22.25 19.0894L8.69867 32.8854C8.46792 33.1203 8.17786 33.2405 7.8285 33.2459C7.47917 33.2514 7.18376 33.1312 6.94229 32.8854C6.70085 32.6396 6.58012 32.3415 6.58012 31.9913C6.58012 31.6411 6.70085 31.3431 6.94229 31.0973L20.4936 17.3014H15.1666C14.8119 17.3014 14.5149 17.1795 14.2756 16.9359C14.0363 16.6923 13.9167 16.3899 13.9167 16.0288C13.9167 15.6677 14.0363 15.3654 14.2756 15.1218C14.5149 14.8781 14.8119 14.7563 15.1666 14.7563H23.2435C23.673 14.7563 24.0314 14.9026 24.3188 15.1952C24.6062 15.4878 24.7499 15.8527 24.7499 16.2899V24.5126C24.7499 24.8737 24.6303 25.1761 24.391 25.4197C24.1517 25.6633 23.8547 25.7851 23.5 25.7851C23.1453 25.7851 22.8483 25.6633 22.609 25.4197C22.3697 25.1761 22.25 24.8737 22.25 24.5126V19.0894Z" fill="#E9EAEB"/>
</g>
</svg>
