<svg width="40" height="40" viewBox="0 0 40 40" fill="none" xmlns="http://www.w3.org/2000/svg">
<mask id="mask0_1861_5253" style="mask-type:alpha" maskUnits="userSpaceOnUse" x="0" y="0" width="40" height="40">
<rect width="40" height="40" fill="#D9D9D9"/>
</mask>
<g mask="url(#mask0_1861_5253)">
<path d="M20.1666 6C22.1153 6 23.9487 6.37852 25.6666 7.13555C27.3845 7.89256 28.8867 8.92582 30.173 10.2353C31.4593 11.5449 32.4743 13.0742 33.2178 14.8231C33.9614 16.572 34.3333 18.4384 34.3333 20.4223C34.3333 22.4062 33.9614 24.2727 33.2178 26.0216C32.4743 27.7705 31.4593 29.2998 30.173 30.6093C28.8867 31.9189 27.3845 32.9521 25.6666 33.7091C23.9487 34.4662 22.1153 34.8447 20.1666 34.8447C19.4294 34.8447 18.6928 34.7816 17.9567 34.6554C17.2206 34.5292 16.5063 34.3454 15.814 34.104C15.4935 33.9952 15.2729 33.7864 15.1522 33.4775C15.0315 33.1686 15.0555 32.8651 15.2243 32.5671C15.3931 32.2517 15.6479 32.0222 15.9887 31.8786C16.3295 31.7351 16.6773 31.709 17.032 31.8003C17.5277 31.9613 18.0475 32.0848 18.5913 32.1707C19.1351 32.2566 19.6602 32.2996 20.1666 32.2996C23.3888 32.2996 26.1388 31.1402 28.4166 28.8213C30.6944 26.5024 31.8333 23.7027 31.8333 20.4223C31.8333 17.142 30.6944 14.3423 28.4166 12.0234C26.1388 9.70453 23.3888 8.54509 20.1666 8.54509C16.9444 8.54509 14.1944 9.70453 11.9166 12.0234C9.63885 14.3423 8.49996 17.142 8.49996 20.4223C8.49996 20.9705 8.53682 21.5008 8.61054 22.0131C8.68426 22.5254 8.80553 23.0393 8.97433 23.5549C9.04697 23.916 9.01812 24.2596 8.88779 24.586C8.75746 24.9122 8.5235 25.1385 8.18592 25.2646C7.84831 25.3908 7.52351 25.375 7.21154 25.2173C6.8996 25.0596 6.69875 24.8089 6.609 24.4652C6.406 23.8235 6.25375 23.1567 6.15225 22.465C6.05075 21.7732 6 21.0924 6 20.4223C6 18.4384 6.37181 16.572 7.11542 14.8231C7.859 13.0742 8.87394 11.5449 10.1602 10.2353C11.4466 8.92582 12.9487 7.89256 14.6667 7.13555C16.3846 6.37852 18.2179 6 20.1666 6ZM22.25 20.0894L8.69867 33.8854C8.46792 34.1203 8.17786 34.2405 7.8285 34.2459C7.47917 34.2514 7.18376 34.1312 6.94229 33.8854C6.70085 33.6396 6.58012 33.3415 6.58012 32.9913C6.58012 32.6411 6.70085 32.3431 6.94229 32.0973L20.4936 18.3014H15.1666C14.8119 18.3014 14.5149 18.1795 14.2756 17.9359C14.0363 17.6923 13.9167 17.3899 13.9167 17.0288C13.9167 16.6677 14.0363 16.3654 14.2756 16.1218C14.5149 15.8781 14.8119 15.7563 15.1666 15.7563H23.2435C23.673 15.7563 24.0314 15.9026 24.3188 16.1952C24.6062 16.4878 24.7499 16.8527 24.7499 17.2899V25.5126C24.7499 25.8737 24.6303 26.1761 24.391 26.4197C24.1517 26.6633 23.8547 26.7851 23.5 26.7851C23.1453 26.7851 22.8483 26.6633 22.609 26.4197C22.3697 26.1761 22.25 25.8737 22.25 25.5126V20.0894Z" fill="#2F80ED"/>
</g>
</svg>
