<svg width="16" height="17" viewBox="0 0 16 17" fill="none" xmlns="http://www.w3.org/2000/svg">
<path d="M14.5 5.90812V4C14.5 3.73478 14.3946 3.48043 14.2071 3.29289C14.0196 3.10536 13.7652 3 13.5 3H2.5C2.23478 3 1.98043 3.10536 1.79289 3.29289C1.60536 3.48043 1.5 3.73478 1.5 4V12C1.5 12.2652 1.60536 12.5196 1.79289 12.7071C1.98043 12.8946 2.23478 13 2.5 13H10V14.5C9.99921 14.5881 10.0217 14.6749 10.0653 14.7516C10.1089 14.8282 10.1719 14.892 10.248 14.9364C10.3242 14.9808 10.4107 15.0043 10.4989 15.0045C10.587 15.0047 10.6737 14.9816 10.75 14.9375L12.25 14.0787L13.75 14.9375C13.8263 14.9816 13.913 15.0047 14.0011 15.0045C14.0893 15.0043 14.1758 14.9808 14.252 14.9364C14.3281 14.892 14.3911 14.8282 14.4347 14.7516C14.4783 14.6749 14.5008 14.5881 14.5 14.5V10.5919C14.8161 10.2892 15.0676 9.92567 15.2394 9.5232C15.4113 9.12072 15.4999 8.68762 15.4999 8.25C15.4999 7.81238 15.4113 7.37928 15.2394 6.97681C15.0676 6.57433 14.8161 6.2108 14.5 5.90812ZM8 9.5H4.5C4.36739 9.5 4.24021 9.44732 4.14645 9.35355C4.05268 9.25979 4 9.13261 4 9C4 8.86739 4.05268 8.74021 4.14645 8.64645C4.24021 8.55268 4.36739 8.5 4.5 8.5H8C8.13261 8.5 8.25979 8.55268 8.35355 8.64645C8.44732 8.74021 8.5 8.86739 8.5 9C8.5 9.13261 8.44732 9.25979 8.35355 9.35355C8.25979 9.44732 8.13261 9.5 8 9.5ZM8 7.5H4.5C4.36739 7.5 4.24021 7.44732 4.14645 7.35355C4.05268 7.25979 4 7.13261 4 7C4 6.86739 4.05268 6.74021 4.14645 6.64645C4.24021 6.55268 4.36739 6.5 4.5 6.5H8C8.13261 6.5 8.25979 6.55268 8.35355 6.64645C8.44732 6.74021 8.5 6.86739 8.5 7C8.5 7.13261 8.44732 7.25979 8.35355 7.35355C8.25979 7.44732 8.13261 7.5 8 7.5ZM13.5 13.6381L12.5 13.0656C12.4244 13.0224 12.3389 12.9997 12.2519 12.9997C12.1648 12.9997 12.0793 13.0224 12.0037 13.0656L11.0037 13.6381V11.25C11.3997 11.4154 11.8246 11.5006 12.2537 11.5006C12.6829 11.5006 13.1078 11.4154 13.5037 11.25L13.5 13.6381ZM12.25 10.5C11.805 10.5 11.37 10.368 11 10.1208C10.63 9.87357 10.3416 9.52217 10.1713 9.11104C10.001 8.6999 9.95642 8.2475 10.0432 7.81105C10.13 7.37459 10.3443 6.97368 10.659 6.65901C10.9737 6.34434 11.3746 6.13005 11.811 6.04323C12.2475 5.95642 12.6999 6.00097 13.111 6.17127C13.5222 6.34157 13.8736 6.62996 14.1208 6.99997C14.368 7.36998 14.5 7.80499 14.5 8.25C14.5 8.54547 14.4418 8.83805 14.3287 9.11104C14.2157 9.38402 14.0499 9.63206 13.841 9.84099C13.6321 10.0499 13.384 10.2157 13.111 10.3287C12.8381 10.4418 12.5455 10.5 12.25 10.5Z" fill="#F2F2F2"/>
</svg>
