<svg width="60" height="60" viewBox="0 0 60 60" fill="none" xmlns="http://www.w3.org/2000/svg">
<rect width="60" height="60" rx="30" fill="#E9AAFF"/>
<path d="M45.4261 23.0882C44.9285 22.8382 44.3644 22.7632 43.8211 22.8749C43.2778 22.9866 42.7855 23.2788 42.4204 23.7061L37.0659 29.6226L31.3727 16.5327C31.3724 16.5272 31.3724 16.5218 31.3727 16.5163C31.1691 16.0637 30.8433 15.6803 30.4338 15.4116C30.0242 15.1428 29.5482 15 29.062 15C28.5758 15 28.0997 15.1428 27.6902 15.4116C27.2807 15.6803 26.9549 16.0637 26.7513 16.5163C26.7516 16.5218 26.7516 16.5272 26.7513 16.5327L21.058 29.6226L15.7035 23.7061C15.3361 23.2787 14.8423 22.9863 14.2975 22.8737C13.7528 22.761 13.187 22.8343 12.6867 23.0824C12.1864 23.3304 11.7791 23.7395 11.5269 24.2473C11.2748 24.755 11.1918 25.3334 11.2905 25.8941C11.2905 25.912 11.2905 25.9283 11.3016 25.9462L14.9084 42.8806C15.0194 43.4769 15.3298 44.0148 15.7862 44.4017C16.2425 44.7885 16.8162 45.0001 17.4083 45H40.7172C41.3091 44.9998 41.8824 44.788 42.3384 44.4011C42.7944 44.0143 43.1046 43.4766 43.2156 42.8806L46.8224 25.9462C46.8224 25.9283 46.8224 25.912 46.8335 25.8941C46.9341 25.3327 46.8506 24.753 46.596 24.2454C46.3414 23.7378 45.93 23.3309 45.4261 23.0882ZM40.7268 42.3393L40.7172 42.3915H17.4067L17.3972 42.3393L13.7952 25.4359L13.8174 25.462L20.4967 32.8377C20.6397 32.9961 20.8188 33.1157 21.018 33.1856C21.2172 33.2556 21.4303 33.2738 21.638 33.2386C21.8458 33.2034 22.0417 33.1158 22.2084 32.9838C22.375 32.8518 22.507 32.6795 22.5927 32.4823L29.062 17.6103L35.5329 32.4871C35.6185 32.6844 35.7506 32.8567 35.9172 32.9887C36.0838 33.1207 36.2798 33.2082 36.4875 33.2435C36.6953 33.2787 36.9083 33.2605 37.1075 33.1905C37.3067 33.1206 37.4859 33.001 37.6289 32.8426L44.3081 25.4669L44.3288 25.4359L40.7268 42.3393Z" fill="#ffff"/>
</svg>
