<svg width="24" height="24" viewBox="0 0 24 24" fill="none" xmlns="http://www.w3.org/2000/svg">
<g clip-path="url(#clip0_1684_4984)">
<path d="M23.2229 2.76929H14.7656V5.52375H17.5635V7.39852H14.7656V9.23083H17.5349V11.077H14.7656V12.9231H17.5349V14.7693H14.7656V16.6154H17.5349V18.4616H14.7656V21.2308H23.2229C23.6484 21.2308 23.9964 20.8699 23.9964 20.4277V3.57236C23.9964 3.13021 23.6484 2.76929 23.2229 2.76929ZM22.1502 18.4616H18.4579V16.6154H22.1502V18.4616ZM22.1502 14.7693H18.4579V12.9231H22.1502V14.7693ZM22.1502 11.077H18.4579V9.23083H22.1502V11.077ZM22.1502 7.38467H18.4579V5.53852H22.1502V7.38467Z" fill="#F2F2F2"/>
<path d="M0 2.66677V21.3342L13.8462 24V0L0 2.66677ZM8.75815 16.6892L7.14738 13.644C7.08646 13.5305 7.02369 13.3218 6.95815 13.0182H6.93323C6.90277 13.1612 6.83077 13.3791 6.71723 13.6708L5.10092 16.6892H2.59108L5.57077 12.0148L2.84492 7.33939H5.40738L6.744 10.1428C6.84831 10.3643 6.94154 10.6274 7.02462 10.9311H7.05046C7.10308 10.7483 7.20092 10.4769 7.344 10.116L8.83015 7.33846H11.1766L8.37323 11.9742L11.2551 16.6883L8.75815 16.6892Z" fill="#F2F2F2"/>
</g>
<defs>
<clipPath id="clip0_1684_4984">
<rect width="24" height="24" fill="white"/>
</clipPath>
</defs>
</svg>
