<svg width="32" height="32" viewBox="0 0 32 32" fill="none" xmlns="http://www.w3.org/2000/svg">
<rect width="32" height="32" rx="8" fill="white"/>
<g clip-path="url(#clip0_2375_5906)">
<path d="M15.9485 28.0019C15.036 28.0019 14.1325 27.8236 13.2894 27.477C12.4464 27.1304 11.6804 26.6224 11.0352 25.982C10.3899 25.3416 9.87812 24.5814 9.52892 23.7446C9.17973 22.9079 9 22.0111 9 21.1055H15.9485V28.0019Z" fill="#3C9C46"/>
<path d="M22.6723 14.2089C22.6723 17.8189 19.782 20.7589 16.1719 20.8762V14.2026C16.1719 10.5926 19.0622 7.65239 22.6723 7.53516V14.2089Z" fill="white" stroke="#2F80ED"/>
<path d="M13.5836 10.8965C15.5024 10.8965 17.0579 9.35267 17.0579 7.44826C17.0579 5.54384 15.5024 4 13.5836 4C11.6649 4 10.1094 5.54384 10.1094 7.44826C10.1094 9.35267 11.6649 10.8965 13.5836 10.8965Z" fill="#FD5000"/>
</g>
<defs>
<clipPath id="clip0_2375_5906">
<rect width="14" height="24" fill="white" transform="translate(9 4)"/>
</clipPath>
</defs>
</svg>
