<svg width="24" height="24" viewBox="0 0 24 24" fill="none" xmlns="http://www.w3.org/2000/svg">
<path d="M18.0011 9C18.6308 8.52776 19.0959 7.86939 19.3305 7.11813C19.5652 6.36687 19.5576 5.56082 19.3087 4.81415C19.0598 4.06748 18.5823 3.41804 17.9438 2.95784C17.3053 2.49764 16.5382 2.25 15.7511 2.25H9.00111C8.21405 2.25 7.44694 2.49764 6.80844 2.95784C6.16995 3.41804 5.69243 4.06748 5.44354 4.81415C5.19465 5.56082 5.187 6.36687 5.42168 7.11813C5.65636 7.86939 6.12146 8.52776 6.75111 9C6.27437 9.35728 5.88962 9.823 5.62872 10.3586C5.36782 10.8942 5.23828 11.4842 5.25083 12.0798C5.26339 12.6755 5.41767 13.2595 5.70091 13.7837C5.98414 14.3078 6.38818 14.7569 6.87954 15.0938C6.32064 15.5187 5.87944 16.0792 5.59773 16.7223C5.31602 17.3654 5.20311 18.0698 5.2697 18.7687C5.33629 19.4676 5.58018 20.138 5.97826 20.7163C6.37635 21.2947 6.91546 21.7618 7.54455 22.0735C8.17364 22.3853 8.87189 22.5313 9.57318 22.4978C10.2745 22.4642 10.9556 22.2522 11.5521 21.8819C12.1485 21.5115 12.6406 20.995 12.9817 20.3814C13.3227 19.7677 13.5015 19.0771 13.5011 18.375V15C14.2968 15.5967 15.2969 15.853 16.2814 15.7123C17.266 15.5717 18.1544 15.0456 18.7511 14.25C19.3478 13.4544 19.6041 12.4542 19.4634 11.4697C19.3228 10.4851 18.7968 9.59674 18.0011 9ZM18.0011 6C18.0011 6.59674 17.7641 7.16903 17.3421 7.59099C16.9201 8.01295 16.3478 8.25 15.7511 8.25H13.5011V3.75H15.7511C16.3478 3.75 16.9201 3.98705 17.3421 4.40901C17.7641 4.83097 18.0011 5.40326 18.0011 6ZM6.75111 6C6.75111 5.40326 6.98816 4.83097 7.41012 4.40901C7.83207 3.98705 8.40437 3.75 9.00111 3.75H12.0011V8.25H9.00111C8.40437 8.25 7.83207 8.01295 7.41012 7.59099C6.98816 7.16903 6.75111 6.59674 6.75111 6ZM9.00111 14.25C8.40437 14.25 7.83207 14.0129 7.41012 13.591C6.98816 13.169 6.75111 12.5967 6.75111 12C6.75111 11.4033 6.98816 10.831 7.41012 10.409C7.83207 9.98705 8.40437 9.75 9.00111 9.75H12.0011V14.25H9.00111ZM12.0011 18.375C12.0011 18.8942 11.8472 19.4017 11.5587 19.8334C11.2703 20.2651 10.8603 20.6015 10.3806 20.8002C9.90099 20.9989 9.37319 21.0508 8.86399 20.9496C8.35479 20.8483 7.88706 20.5983 7.51995 20.2312C7.15284 19.864 6.90283 19.3963 6.80154 18.8871C6.70026 18.3779 6.75224 17.8501 6.95092 17.3705C7.1496 16.8908 7.48605 16.4808 7.91773 16.1924C8.34941 15.904 8.85693 15.75 9.37611 15.75H12.0011V18.375ZM15.7511 14.25C15.3061 14.25 14.8711 14.118 14.5011 13.8708C14.1311 13.6236 13.8427 13.2722 13.6724 12.861C13.5021 12.4499 13.4575 11.9975 13.5443 11.561C13.6312 11.1246 13.8454 10.7237 14.1601 10.409C14.4748 10.0943 14.8757 9.88005 15.3122 9.79323C15.7486 9.70642 16.201 9.75097 16.6121 9.92127C17.0233 10.0916 17.3747 10.38 17.6219 10.75C17.8691 11.12 18.0011 11.555 18.0011 12C18.0011 12.5967 17.7641 13.169 17.3421 13.591C16.9201 14.0129 16.3478 14.25 15.7511 14.25Z" fill="#1c1c1c"/>
</svg>
