<svg width="24" height="24" viewBox="0 0 24 24" fill="none" xmlns="http://www.w3.org/2000/svg">
<rect width="24" height="24" rx="6" fill="white"/>
<path fill-rule="evenodd" clip-rule="evenodd" d="M11.8859 6C15.1367 6 17.7718 8.77363 17.7718 12.1957C17.7718 14.9325 16.0873 17.2542 13.75 18.0742C13.4516 18.1352 13.3456 17.9418 13.3456 17.7768C13.3456 17.5725 13.3527 16.9054 13.3527 16.0763C13.3527 15.4987 13.1643 15.1216 12.953 14.9294C14.2638 14.776 15.6411 14.252 15.6411 11.8723C15.6411 11.1955 15.4127 10.6432 15.0349 10.2093C15.0961 10.0528 15.298 9.42265 14.9772 8.5694C14.9772 8.5694 14.4839 8.40338 13.3603 9.20466C12.89 9.06749 12.3862 8.99847 11.8859 8.99605C11.3856 8.99847 10.8824 9.06749 10.4127 9.20466C9.28787 8.40338 8.79345 8.5694 8.79345 8.5694C8.47385 9.42265 8.67573 10.0528 8.73636 10.2093C8.36025 10.6432 8.13011 11.1955 8.13011 11.8723C8.13011 14.2459 9.50447 14.778 10.8117 14.9345C10.6434 15.0892 10.4909 15.3621 10.438 15.7627C10.1025 15.921 9.25019 16.195 8.72517 15.2481C8.72517 15.2481 8.41381 14.6528 7.82286 14.6093C7.82286 14.6093 7.24899 14.6015 7.78284 14.9858C7.78284 14.9858 8.16837 15.1762 8.43617 15.8922C8.43617 15.8922 8.78168 16.998 10.4191 16.6234C10.4221 17.1413 10.4274 17.6293 10.4274 17.7768C10.4274 17.9405 10.3191 18.1322 10.0254 18.0748C7.68631 17.256 6 14.9331 6 12.1957C6 8.77363 8.63571 6 11.8859 6Z" fill="black"/>
</svg>
