<svg width="16" height="17" viewBox="0 0 16 17" fill="none" xmlns="http://www.w3.org/2000/svg">
<path d="M8 2C6.71442 2 5.45772 2.38122 4.3888 3.09545C3.31988 3.80968 2.48676 4.82484 1.99479 6.01256C1.50282 7.20028 1.37409 8.50721 1.6249 9.76809C1.8757 11.029 2.49477 12.1872 3.40381 13.0962C4.31285 14.0052 5.47104 14.6243 6.73192 14.8751C7.99279 15.1259 9.29973 14.9972 10.4874 14.5052C11.6752 14.0132 12.6903 13.1801 13.4046 12.1112C14.1188 11.0423 14.5 9.78558 14.5 8.5C14.498 6.7767 13.8126 5.12455 12.594 3.906C11.3754 2.68744 9.7233 2.00198 8 2ZM12.8975 6H10.6694C10.3888 4.97057 9.91588 4.00355 9.27563 3.15C10.0492 3.33583 10.7734 3.68674 11.3987 4.17866C12.024 4.67058 12.5355 5.29189 12.8981 6H12.8975ZM13.5 8.5C13.5004 9.00723 13.4304 9.51205 13.2919 10H10.885C11.0383 9.00588 11.0383 7.99412 10.885 7H13.2919C13.4304 7.48795 13.5004 7.99277 13.5 8.5ZM8 3.1875C8.74871 3.98908 9.3045 4.95102 9.625 6H6.375C6.69518 4.95088 7.25102 3.98886 8 3.1875ZM6.375 11H9.625C9.30482 12.0491 8.74899 13.0111 8 13.8125C7.2513 13.0109 6.69551 12.049 6.375 11ZM6.13125 10C5.95959 9.00737 5.95959 7.99263 6.13125 7H9.87375C10.0454 7.99263 10.0454 9.00737 9.87375 10H6.13125ZM9.27813 13.85C9.91838 12.9965 10.3913 12.0294 10.6719 11H12.9006C12.5377 11.7084 12.0258 12.3299 11.4001 12.8218C10.7744 13.3137 10.0497 13.6645 9.27563 13.85H9.27813Z" fill="#F2F2F2"/>
</svg>
