<svg width="40" height="40" viewBox="0 0 40 40" fill="none" xmlns="http://www.w3.org/2000/svg">
<circle cx="20" cy="20" r="20" fill="white"/>
<mask id="mask0_1802_5163" style="mask-type:alpha" maskUnits="userSpaceOnUse" x="8" y="8" width="24" height="24">
<rect x="8" y="8" width="24" height="24" fill="#D9D9D9"/>
</mask>
<g mask="url(#mask0_1802_5163)">
<path d="M20.0996 11.5996C21.2688 11.5996 22.3688 11.8267 23.3996 12.2809C24.4303 12.7351 25.3316 13.3551 26.1034 14.1408C26.8752 14.9265 27.4842 15.8441 27.9303 16.8935C28.3765 17.9428 28.5996 19.0627 28.5996 20.253C28.5996 21.4434 28.3765 22.5632 27.9303 23.6126C27.4842 24.6619 26.8752 25.5795 26.1034 26.3652C25.3316 27.1509 24.4303 27.7709 23.3996 28.2251C22.3688 28.6793 21.2688 28.9064 20.0996 28.9064C19.6573 28.9064 19.2153 28.8686 18.7736 28.7929C18.3319 28.7171 17.9034 28.6069 17.488 28.462C17.2957 28.3967 17.1634 28.2714 17.0909 28.0861C17.0185 27.9008 17.0329 27.7187 17.1342 27.5399C17.2355 27.3506 17.3884 27.2129 17.5928 27.1268C17.7973 27.0407 18.006 27.025 18.2188 27.0798C18.5162 27.1764 18.8281 27.2505 19.1544 27.302C19.4807 27.3536 19.7957 27.3794 20.0996 27.3794C22.0329 27.3794 23.6829 26.6837 25.0496 25.2924C26.4163 23.901 27.0996 22.2212 27.0996 20.253C27.0996 18.2848 26.4163 16.605 25.0496 15.2137C23.6829 13.8223 22.0329 13.1267 20.0996 13.1267C18.1663 13.1267 16.5163 13.8223 15.1496 15.2137C13.7829 16.605 13.0996 18.2848 13.0996 20.253C13.0996 20.5819 13.1217 20.9001 13.1659 21.2075C13.2102 21.5148 13.2829 21.8232 13.3842 22.1325C13.4278 22.3492 13.4105 22.5554 13.3323 22.7512C13.2541 22.947 13.1137 23.0827 12.9112 23.1584C12.7086 23.2341 12.5137 23.2246 12.3265 23.13C12.1394 23.0354 12.0189 22.885 11.965 22.6788C11.8432 22.2937 11.7519 21.8937 11.691 21.4786C11.6301 21.0636 11.5996 20.655 11.5996 20.253C11.5996 19.0627 11.8227 17.9428 12.2689 16.8935C12.715 15.8441 13.324 14.9265 14.0958 14.1408C14.8676 13.3551 15.7688 12.7351 16.7996 12.2809C17.8304 11.8267 18.9304 11.5996 20.0996 11.5996ZM21.3496 20.0533L13.2188 28.3308C13.0804 28.4718 12.9063 28.5439 12.6967 28.5472C12.4871 28.5504 12.3099 28.4783 12.165 28.3308C12.0201 28.1833 11.9477 28.0045 11.9477 27.7944C11.9477 27.5843 12.0201 27.4055 12.165 27.258L20.2958 18.9804H17.0996C16.8868 18.9804 16.7086 18.9073 16.565 18.7612C16.4214 18.615 16.3496 18.4336 16.3496 18.2169C16.3496 18.0003 16.4214 17.8188 16.565 17.6727C16.7086 17.5265 16.8868 17.4534 17.0996 17.4534H21.9457C22.2034 17.4534 22.4185 17.5412 22.5909 17.7167C22.7633 17.8923 22.8496 18.1112 22.8496 18.3735V23.3072C22.8496 23.5238 22.7778 23.7052 22.6342 23.8514C22.4906 23.9976 22.3124 24.0707 22.0996 24.0707C21.8868 24.0707 21.7086 23.9976 21.565 23.8514C21.4214 23.7052 21.3496 23.5238 21.3496 23.3072V20.0533Z" fill="#1C1C1C"/>
</g>
</svg>
