<svg width="16" height="17" viewBox="0 0 16 17" fill="none" xmlns="http://www.w3.org/2000/svg">
<path d="M10.9998 13.4525C11.3448 13.3166 11.679 13.1552 11.9998 12.9694V15.5C11.9998 15.6326 11.9472 15.7598 11.8534 15.8536C11.7596 15.9474 11.6325 16 11.4998 16C11.3672 16 11.2401 15.9474 11.1463 15.8536C11.0525 15.7598 10.9998 15.6326 10.9998 15.5V13.4525ZM11.7348 7.92566L8.23484 6.05879C8.11807 5.99914 7.98254 5.98776 7.85745 6.02708C7.73236 6.06641 7.62773 6.1533 7.56609 6.26903C7.50446 6.38477 7.49075 6.52008 7.52792 6.64583C7.5651 6.77157 7.65018 6.87768 7.76484 6.94129L10.6873 8.50004L11.7498 7.93379L11.7348 7.92566ZM15.7348 6.05879L8.23484 2.05879C8.1625 2.02027 8.0818 2.00012 7.99984 2.00012C7.91789 2.00012 7.83718 2.02027 7.76484 2.05879L0.264844 6.05879C0.184846 6.10142 0.117944 6.165 0.0712937 6.24272C0.0246433 6.32045 0 6.40939 0 6.50004C0 6.59069 0.0246433 6.67963 0.0712937 6.75735C0.117944 6.83508 0.184846 6.89866 0.264844 6.94129L1.99984 7.86691V10.8932C1.99932 11.1388 2.08971 11.3759 2.25359 11.5588C3.07234 12.4707 4.90672 14 7.99984 14C9.02544 14.0085 10.0434 13.8228 10.9998 13.4525V8.66691L10.6873 8.50004L7.99984 9.93316L2.73922 7.12504L1.56234 6.50004L7.99984 3.06691L14.4373 6.50004L13.2636 7.12504H13.2598L11.7498 7.93379C11.8259 7.97768 11.889 8.04082 11.9329 8.11685C11.9768 8.19288 11.9999 8.27913 11.9998 8.36691V12.9694C12.6518 12.593 13.241 12.1171 13.7461 11.5588C13.91 11.3759 14.0004 11.1388 13.9998 10.8932V7.86691L15.7348 6.94129C15.8148 6.89866 15.8817 6.83508 15.9284 6.75735C15.975 6.67963 15.9997 6.59069 15.9997 6.50004C15.9997 6.40939 15.975 6.32045 15.9284 6.24272C15.8817 6.165 15.8148 6.10142 15.7348 6.05879Z" fill="#F2F2F2"/>
</svg>
