<svg width="17" height="24" viewBox="0 0 17 24" fill="#1c1c1c" xmlns="http://www.w3.org/2000/svg">
<g clip-path="url(#clip0_1466_2137)">
<path d="M9.31331 7.59219C9.47741 7.59611 9.63891 7.55198 9.77731 7.46553C9.91566 7.37908 10.0246 7.25418 10.0901 7.1068C10.1557 6.95942 10.1749 6.79627 10.1454 6.63812C10.1158 6.47996 10.0388 6.33405 9.92421 6.219C9.80956 6.10394 9.66256 6.02494 9.50191 5.99212C9.34126 5.95931 9.17426 5.97415 9.02221 6.03474C8.87021 6.09532 8.74011 6.19892 8.64846 6.33229C8.55686 6.46566 8.50786 6.62274 8.50781 6.78354C8.50901 6.99425 8.59366 7.19634 8.74391 7.34714C8.89416 7.498 9.09831 7.58582 9.31331 7.59219Z" fill="#1c1c1c"/>
<path fill-rule="evenodd" clip-rule="evenodd" d="M14.0339 6.58356C14.0042 6.40361 13.9238 6.23537 13.8019 6.09774C13.6799 5.96005 13.5212 5.85847 13.3435 5.8043L12.9633 5.69645L12.7932 5.64747C12.6922 5.62263 12.5935 5.58987 12.498 5.54946C12.3719 5.48471 12.2689 5.38381 12.2028 5.26028C11.7878 4.63867 11.2544 4.10121 10.6318 3.67725C10.1332 3.33672 9.54777 3.13853 8.94087 3.10478C8.33397 3.07103 7.72942 3.20305 7.19467 3.48611C6.42927 3.85349 5.78177 4.41996 5.32292 5.12358C4.8641 5.82717 4.61159 6.64082 4.59303 7.47553V19.2135C4.57837 19.4093 4.57837 19.6058 4.59303 19.8016C4.64208 20.5025 4.88563 21.177 5.29742 21.7523C5.70917 22.3275 6.27352 22.7817 6.92947 23.0657C7.36382 23.2557 7.82112 23.3908 8.29032 23.4676C8.43602 23.4923 8.58302 23.5087 8.73062 23.5166H8.86067H8.92072H9.62117L9.45607 15.8808C10.4407 15.0875 11.2355 14.0921 11.7845 12.965C12.3334 11.8378 12.6231 10.6064 12.6331 9.35752V8.15189L13.6037 7.52456C13.7575 7.42234 13.8793 7.28015 13.9553 7.11396C14.0313 6.94773 14.0585 6.76405 14.0339 6.58356ZM7.50487 21.8601C7.06112 21.675 6.67947 21.3714 6.40347 20.9841C6.12747 20.5967 5.96817 20.1411 5.94387 19.6693C5.87022 19.1782 5.97852 18.6775 6.24907 18.2578C6.30352 18.1741 6.36547 18.0954 6.43417 18.0226L6.85442 17.6795L7.31472 17.4099C7.56917 17.2913 7.83367 17.1946 8.10522 17.1207L8.23032 22.1002C7.98057 22.0453 7.73737 21.9648 7.50487 21.8601ZM5.95387 16.6699V7.49512C5.96297 6.90854 6.13602 6.33563 6.45417 5.83859C6.78022 5.33939 7.23847 4.93623 7.78002 4.67216C8.10007 4.4948 8.46537 4.41114 8.83252 4.43112C9.19967 4.4511 9.55327 4.57388 9.85132 4.78488C10.3243 5.11134 10.7285 5.52399 11.0421 6.00032C11.2443 6.32848 11.5423 6.58969 11.8976 6.75019L12.1528 6.8531L11.2422 7.44125V9.34773C11.2274 10.4819 10.9448 11.5975 10.4167 12.6069C9.88407 13.6181 9.12047 14.4953 8.18527 15.1701L6.65432 16.2582L5.95387 16.6699Z" fill="#1c1c1c"/>
<path fill-rule="evenodd" clip-rule="evenodd" d="M13.1332 0.00561523H3.62726C2.66607 0.00820199 1.74499 0.383391 1.06532 1.04919C0.385646 1.71499 0.00264067 2.61727 0 3.55886V12.812C0.0006541 13.2801 0.095586 13.7435 0.279357 14.1755C0.463128 14.6076 0.732125 14.9999 1.07094 15.33C1.40975 15.6601 1.81172 15.9214 2.25381 16.0991C2.69591 16.2767 3.16944 16.3671 3.64728 16.3652H4.59287V15.0419H3.64728C3.34768 15.0426 3.05088 14.9854 2.77383 14.8737C2.49678 14.762 2.24492 14.5979 2.0326 14.3909C1.82028 14.1838 1.65168 13.9378 1.53642 13.6668C1.42117 13.3959 1.36151 13.1055 1.36085 12.812V3.55886C1.36151 3.2656 1.4212 2.97535 1.53653 2.70472C1.65184 2.4341 1.82053 2.18841 2.03291 1.98173C2.24529 1.77505 2.4972 1.61143 2.77421 1.50025C3.05123 1.38907 3.34791 1.3325 3.64728 1.33379H13.1532C13.7575 1.33249 14.3375 1.56603 14.7662 1.98317C15.1948 2.40031 15.437 2.96698 15.4396 3.55886V12.812C15.439 13.1055 15.3793 13.3959 15.264 13.6668C15.1488 13.9378 14.9802 14.1838 14.7679 14.3909C14.5556 14.5979 14.3037 14.762 14.0267 14.8737C13.7496 14.9854 13.4528 15.0426 13.1532 15.0419H10.3414C10.0651 15.3397 9.76925 15.6197 9.4559 15.88V16.3701H13.1182C13.5956 16.3714 14.0686 16.2805 14.5101 16.1026C14.9516 15.9247 15.353 15.6632 15.6913 15.3332C16.0296 15.0032 16.2981 14.6111 16.4816 14.1793C16.6651 13.7475 16.7598 13.2846 16.7605 12.8169V3.55886C16.7579 2.61727 16.3749 1.71499 15.6952 1.04919C15.0155 0.383391 14.0944 0.00820199 13.1332 0.00561523Z" fill="#1c1c1c"/>
</g>
<defs>
<clipPath id="clip0_1466_2137">
<rect width="17" height="24" fill="#1c1c1c"/>
</clipPath>
</defs>
</svg>
