<svg width="60" height="60" viewBox="0 0 60 60" fill="none" xmlns="http://www.w3.org/2000/svg">
<path fill-rule="evenodd" clip-rule="evenodd" d="M30 45C38.2842 45 45 38.2842 45 30C45 21.7157 38.2842 15 30 15C21.7157 15 15 21.7157 15 30C15 38.2842 21.7157 45 30 45ZM30 40C35.5228 40 40 35.5228 40 30C40 24.4771 35.5228 20 30 20C24.4771 20 20 24.4771 20 30C20 35.5228 24.4771 40 30 40Z" fill="white"/>
<path d="M45 12.5C43.6193 12.5 42.5 13.6193 42.5 15C42.5 16.3807 43.6193 17.5 45 17.5C46.3807 17.5 47.5 16.3807 47.5 15C47.5 13.6193 46.3807 12.5 45 12.5Z" fill="white"/>
<path fill-rule="evenodd" clip-rule="evenodd" d="M4.1349 10.6902C2.5 13.8988 2.5 18.0992 2.5 26.5V33.5C2.5 41.9007 2.5 46.1012 4.1349 49.3097C5.573 52.1322 7.8677 54.427 10.6902 55.865C13.8988 57.5 18.0992 57.5 26.5 57.5H33.5C41.9007 57.5 46.1012 57.5 49.3097 55.865C52.1322 54.427 54.427 52.1322 55.865 49.3097C57.5 46.1012 57.5 41.9007 57.5 33.5V26.5C57.5 18.0992 57.5 13.8988 55.865 10.6902C54.427 7.8677 52.1322 5.573 49.3097 4.1349C46.1012 2.5 41.9007 2.5 33.5 2.5H26.5C18.0992 2.5 13.8988 2.5 10.6902 4.1349C7.8677 5.573 5.573 7.8677 4.1349 10.6902ZM33.5 7.5H26.5C22.2171 7.5 19.3056 7.5039 17.0552 7.68775C14.8631 7.86685 13.7421 8.19148 12.9601 8.58993C11.0785 9.54868 9.54868 11.0785 8.58993 12.9601C8.19148 13.7421 7.86685 14.8631 7.68775 17.0552C7.5039 19.3056 7.5 22.2171 7.5 26.5V33.5C7.5 37.783 7.5039 40.6943 7.68775 42.9448C7.86685 45.137 8.19148 46.258 8.58993 47.04C9.54868 48.9215 11.0785 50.4512 12.9601 51.41C13.7421 51.8085 14.8631 52.1333 17.0552 52.3123C19.3056 52.496 22.2171 52.5 26.5 52.5H33.5C37.783 52.5 40.6943 52.496 42.9448 52.3123C45.137 52.1333 46.258 51.8085 47.04 51.41C48.9215 50.4512 50.4512 48.9215 51.41 47.04C51.8085 46.258 52.1333 45.137 52.3123 42.9448C52.496 40.6943 52.5 37.783 52.5 33.5V26.5C52.5 22.2171 52.496 19.3056 52.3123 17.0552C52.1333 14.8631 51.8085 13.7421 51.41 12.9601C50.4512 11.0785 48.9215 9.54868 47.04 8.58993C46.258 8.19148 45.137 7.86685 42.9448 7.68775C40.6943 7.5039 37.783 7.5 33.5 7.5Z" fill="white"/>
</svg>
