<svg width="24" height="24" viewBox="0 0 24 24" fill="none" xmlns="http://www.w3.org/2000/svg">
<path d="M22.1 1H11.5C11.4999 2.26442 11.9988 3.47781 12.8882 4.37656C13.7776 5.27531 14.9856 5.78683 16.25 5.8H18.2V7.65C18.2 8.92304 18.7057 10.1439 19.6059 11.0441C20.5061 11.9443 21.727 12.45 23 12.45V1.9C23 1.66131 22.9052 1.43239 22.7364 1.2636C22.5676 1.09482 22.3387 1 22.1 1Z" fill="#F2F2F2"/>
<path d="M16.85 6.30005H6.25C6.26301 7.55579 6.76764 8.75643 7.65563 9.64442C8.54362 10.5324 9.74426 11.037 11 11.05H13V12.95C12.9933 13.5757 13.1116 14.1964 13.3479 14.7757C13.5843 15.355 13.9339 15.8813 14.3763 16.3237C14.8187 16.7661 15.345 17.1158 15.9244 17.3521C16.5037 17.5884 17.1244 17.7067 17.75 17.7V7.20005C17.75 6.96135 17.6552 6.73244 17.4864 6.56365C17.3176 6.39487 17.0887 6.30005 16.85 6.30005Z" fill="#F2F2F2"/>
<path d="M11.6 11.55H1C1 12.8231 1.50571 14.044 2.40589 14.9442C3.30606 15.8443 4.52696 16.35 5.8 16.35H7.75V18.2C7.74993 19.4645 8.24877 20.6779 9.13816 21.5766C10.0276 22.4754 11.2356 22.9869 12.5 23V12.45C12.5 12.2114 12.4052 11.9824 12.2364 11.8137C12.0676 11.6449 11.8387 11.55 11.6 11.55Z" fill="#F2F2F2"/>
</svg>
