<svg width="84" height="32" viewBox="0 0 84 32" fill="none" xmlns="http://www.w3.org/2000/svg">
<path d="M34.48 19.912V18.664H38.224V19.912C38.224 20.848 38.752 21.712 40.24 21.712C41.68 21.712 42.232 20.968 42.232 19.768V7.24H46.12V20.008C46.12 23.056 43.864 25.312 40.288 25.312C36.376 25.312 34.48 22.984 34.48 19.912ZM48.5956 18.976C48.5956 15.184 51.3796 12.64 55.2196 12.64C59.0356 12.64 61.8196 15.184 61.8196 18.976C61.8196 22.768 59.0356 25.288 55.2196 25.288C51.3796 25.288 48.5956 22.768 48.5956 18.976ZM52.3156 18.952C52.3156 20.776 53.4916 21.976 55.2196 21.976C56.9236 21.976 58.0996 20.776 58.0996 18.952C58.0996 17.152 56.9236 15.952 55.2196 15.952C53.4916 15.952 52.3156 17.152 52.3156 18.952ZM69.5303 25.312C65.9063 25.312 63.3143 22.672 63.3143 18.976C63.3143 15.232 65.8343 12.616 69.4583 12.616C73.2263 12.616 75.5783 15.088 75.5783 19V19.936L66.8663 19.984C67.0823 21.568 67.9703 22.312 69.6023 22.312C70.9943 22.312 71.9783 21.808 72.2423 20.944H75.6263C75.1943 23.608 72.8183 25.312 69.5303 25.312ZM69.4823 15.616C68.0183 15.616 67.2023 16.264 66.9143 17.704H71.9063C71.9063 16.432 70.9703 15.616 69.4823 15.616ZM79.3444 25.312C78.1204 25.312 77.1364 24.328 77.1364 23.152C77.1364 21.952 78.1204 20.968 79.3444 20.968C80.5204 20.968 81.5524 21.952 81.5524 23.152C81.5524 24.328 80.5204 25.312 79.3444 25.312Z" fill="#231F20"/>
<path d="M9 32C7.8181 32 6.64778 31.7622 5.55585 31.3001C4.46392 30.838 3.47177 30.1607 2.63604 29.3068C1.80031 28.4529 1.13738 27.4392 0.685084 26.3236C0.232791 25.208 -4.96727e-07 24.0123 -3.93402e-07 22.8047L9 22.8047L9 32Z" fill="#3C9C46"/>
<path d="M9.49805 22.2893V13.4131C9.49805 8.88651 13.0364 5.18636 17.498 4.92755V13.8038C17.498 18.3303 13.9597 22.0305 9.49805 22.2893Z" stroke="#2F80ED"/>
<ellipse cx="5.9375" cy="4.59767" rx="4.5" ry="4.59767" fill="#FD5000"/>
</svg>
