<svg width="18" height="32" viewBox="0 0 40 70" fill="none" xmlns="http://www.w3.org/2000/svg">
<g clip-path="url(#clip0_1357_935)">
<path d="M20.0005 69.5986C17.3741 69.5986 14.7735 69.0813 12.347 68.0763C9.92055 67.0712 7.71582 65.598 5.85869 63.7409C4.00156 61.8838 2.52841 59.6791 1.52334 57.2526C0.51827 54.8262 0.000967829 52.2255 0.000968059 49.5991L20.0005 49.5991L20.0005 69.5986Z" fill="url(#paint0_linear_1357_935)"/>
<path d="M19.998 29.5996C19.998 18.5542 28.9521 9.6001 39.9976 9.6001V9.6001V29.5996C39.9976 40.645 31.0435 49.5991 19.998 49.5991V49.5991V29.5996Z" fill="url(#paint1_linear_1357_935)"/>
<circle cx="13.199" cy="9.99976" r="9.99976" fill="url(#paint2_linear_1357_935)"/>
</g>
<defs>
<linearGradient id="paint0_linear_1357_935" x1="20.0005" y1="29.5996" x2="20.0005" y2="69.5986" gradientUnits="userSpaceOnUse">
<stop stop-color="#3B66FF"/>
<stop offset="1" stop-color="#83ADFF"/>
</linearGradient>
<linearGradient id="paint1_linear_1357_935" x1="29.9978" y1="9.6001" x2="29.9978" y2="49.5991" gradientUnits="userSpaceOnUse">
<stop stop-color="#DD7CFF"/>
<stop offset="1" stop-color="#E9AAFF"/>
</linearGradient>
<linearGradient id="paint2_linear_1357_935" x1="13.199" y1="0" x2="13.199" y2="19.9995" gradientUnits="userSpaceOnUse">
<stop stop-color="#FF5454"/>
<stop offset="1" stop-color="#8155FF"/>
</linearGradient>
<clipPath id="clip0_1357_935">
<rect width="40" height="70" fill="white"/>
</clipPath>
</defs>
</svg>
