<svg width="12" height="12" viewBox="0 0 60 60" fill="none" xmlns="http://www.w3.org/2000/svg">
<path fill-rule="evenodd" clip-rule="evenodd" d="M13.6528 58.6193V19.9984H0.817383V58.6192H13.6528V58.6193ZM7.23645 14.7273C11.711 14.7273 14.4983 11.7592 14.4983 8.05314C14.4137 4.26471 11.711 1.38037 7.32035 1.38037C2.92898 1.38049 0.0585938 4.26482 0.0585938 8.05326C0.0585938 11.7593 2.84437 14.7274 7.15195 14.7274L7.23645 14.7273ZM20.7567 58.6193C20.7567 58.6193 20.9251 23.6221 20.7567 19.9985H33.5941V25.5994H33.5089C35.1969 22.9638 38.2379 19.0916 45.1621 19.0916C53.6095 19.0916 59.9413 24.6115 59.9413 36.4744V58.6194H47.106V37.9583C47.106 32.7668 45.2488 29.2242 40.6024 29.2242C37.057 29.2242 34.9441 31.6125 34.0163 33.9211C33.6768 34.7428 33.5941 35.897 33.5941 37.0513V58.6193H20.7567Z" fill="white"/>
</svg>
