<svg width="16" height="17" viewBox="0 0 16 17" fill="none" xmlns="http://www.w3.org/2000/svg">
<path d="M8 1.5C6.54182 1.50165 5.14383 2.08165 4.11274 3.11274C3.08165 4.14383 2.50165 5.54182 2.5 7C2.5 11.7063 7.5 15.2606 7.71313 15.4094C7.7972 15.4683 7.89735 15.4999 8 15.4999C8.10265 15.4999 8.2028 15.4683 8.28687 15.4094C8.5 15.2606 13.5 11.7063 13.5 7C13.4983 5.54182 12.9184 4.14383 11.8873 3.11274C10.8562 2.08165 9.45818 1.50165 8 1.5ZM8 5C8.39556 5 8.78224 5.1173 9.11114 5.33706C9.44004 5.55682 9.69638 5.86918 9.84776 6.23463C9.99913 6.60009 10.0387 7.00222 9.96157 7.39018C9.8844 7.77814 9.69392 8.13451 9.41421 8.41421C9.13451 8.69392 8.77814 8.8844 8.39018 8.96157C8.00222 9.03874 7.60009 8.99913 7.23463 8.84776C6.86918 8.69638 6.55682 8.44004 6.33706 8.11114C6.1173 7.78224 6 7.39556 6 7C6 6.46957 6.21071 5.96086 6.58579 5.58579C6.96086 5.21071 7.46957 5 8 5Z" fill="#F2F2F2"/>
</svg>
