<svg width="24" height="24" viewBox="0 0 24 24" fill="none" xmlns="http://www.w3.org/2000/svg">
<mask id="mask0_1057_928" style="mask-type:alpha" maskUnits="userSpaceOnUse" x="0" y="0" width="24" height="24">
<rect width="24" height="24" fill="#D9D9D9"/>
</mask>
<g mask="url(#mask0_1057_928)">
<path d="M4.00195 18.9003C3.71862 18.9003 3.48112 18.8027 3.28945 18.6076C3.09779 18.4125 3.00195 18.1707 3.00195 17.8822C3.00195 17.5938 3.09779 17.352 3.28945 17.1569C3.48112 16.9618 3.71862 16.8642 4.00195 16.8642H20.002C20.2853 16.8642 20.5228 16.9618 20.7145 17.1569C20.9061 17.352 21.002 17.5938 21.002 17.8822C21.002 18.1707 20.9061 18.4125 20.7145 18.6076C20.5228 18.8027 20.2853 18.9003 20.002 18.9003H4.00195ZM4.00195 13.81C3.71862 13.81 3.48112 13.7125 3.28945 13.5173C3.09779 13.3222 3.00195 13.0804 3.00195 12.792C3.00195 12.5035 3.09779 12.2618 3.28945 12.0666C3.48112 11.8715 3.71862 11.7739 4.00195 11.7739H20.002C20.2853 11.7739 20.5228 11.8715 20.7145 12.0666C20.9061 12.2618 21.002 12.5035 21.002 12.792C21.002 13.0804 20.9061 13.3222 20.7145 13.5173C20.5228 13.7125 20.2853 13.81 20.002 13.81H4.00195ZM4.00195 8.71979C3.71862 8.71979 3.48112 8.62222 3.28945 8.4271C3.09779 8.23197 3.00195 7.99018 3.00195 7.70174C3.00195 7.41329 3.09779 7.1715 3.28945 6.97637C3.48112 6.78125 3.71862 6.68369 4.00195 6.68369H20.002C20.2853 6.68369 20.5228 6.78125 20.7145 6.97637C20.9061 7.1715 21.002 7.41329 21.002 7.70174C21.002 7.99018 20.9061 8.23197 20.7145 8.4271C20.5228 8.62222 20.2853 8.71979 20.002 8.71979H4.00195Z" fill="#F3F3F3"/>
</g>
</svg>
