<svg width="24" height="24" viewBox="0 0 24 24" fill="none" xmlns="http://www.w3.org/2000/svg">
<path d="M6.77857 6.13915C7.7289 4.78193 9.59953 4.45209 10.9568 5.40242C12.314 6.35275 12.6438 8.22339 11.6935 9.58061L5.95771 17.7721C5.00738 19.1293 3.13674 19.4592 1.77953 18.5089C0.422312 17.5585 0.0924687 15.6879 1.0428 14.3307L6.77857 6.13915Z" fill="#F2F2F2"/>
<path d="M15.2629 6.22801C16.2133 4.8708 18.0839 4.54095 19.4411 5.49128C20.7983 6.44162 21.1282 8.31225 20.1778 9.66947L14.4421 17.861C13.4917 19.2182 11.6211 19.548 10.2639 18.5977C8.90669 17.6474 8.57684 15.7767 9.52718 14.4195L15.2629 6.22801Z" fill="#F2F2F2"/>
<path d="M20.5 18.8596C22.1569 18.8596 23.5 17.5165 23.5 15.8596C23.5 14.2028 22.1569 12.8596 20.5 12.8596C18.8431 12.8596 17.5 14.2028 17.5 15.8596C17.5 17.5165 18.8431 18.8596 20.5 18.8596Z" fill="#F2F2F2"/>
</svg>
