<svg width="24" height="24" viewBox="0 0 24 24" fill="none" xmlns="http://www.w3.org/2000/svg">
<rect width="24" height="24" rx="6" fill="white"/>
<path d="M6.61927 15.9646C5.96136 15.9661 5.35358 15.6134 5.02838 15.0415C4.70787 14.4731 4.72709 13.7742 5.07835 13.2243L8.35453 8.07959C8.6959 7.51667 9.31375 7.18096 9.97179 7.20085C10.6294 7.21661 11.2275 7.58529 11.537 8.16565C11.8424 8.74315 11.8042 9.43795 11.4384 9.98004L8.16434 15.1247C7.8269 15.6506 7.24405 15.9674 6.61927 15.9646Z" fill="#F62B54"/>
<path d="M12.239 15.9646C11.5782 15.9646 10.9702 15.6113 10.6509 15.0435C10.3311 14.4767 10.3503 13.7796 10.7009 13.2312L13.9708 8.09831C14.3072 7.52732 14.9269 7.18373 15.5894 7.20084C16.2558 7.21541 16.8597 7.58815 17.1651 8.17119C17.4684 8.75424 17.424 9.45321 17.0471 9.99391L13.7778 15.1268C13.4415 15.6504 12.8613 15.9662 12.239 15.9646Z" fill="#FFCC00"/>
<path d="M17.7335 16.0077C18.6651 16.0077 19.4202 15.2684 19.4202 14.3564C19.4202 13.4444 18.6651 12.7051 17.7335 12.7051C16.802 12.7051 16.0469 13.4444 16.0469 14.3564C16.0469 15.2684 16.802 16.0077 17.7335 16.0077Z" fill="#00CA72"/>
</svg>
