<svg width="20" height="21" viewBox="0 0 20 21" fill="none" xmlns="http://www.w3.org/2000/svg">
<path fill-rule="evenodd" clip-rule="evenodd" d="M2.0087 1.34441C3.92895 -0.610507 7.16944 -0.461893 8.50647 1.97713L9.24825 3.3303C10.1214 4.92305 9.74932 6.93266 8.47115 8.24981C8.45412 8.27356 8.36383 8.40729 8.35263 8.64095C8.33834 8.93921 8.44235 9.62897 9.49204 10.6976C10.5414 11.7659 11.2188 11.8721 11.512 11.8576C11.7417 11.8462 11.8732 11.7544 11.8965 11.7369C13.1903 10.4358 15.1643 10.0569 16.7288 10.9458L18.0579 11.7011C20.4537 13.0623 20.5997 16.3612 18.6795 18.3161C17.6523 19.3617 16.2866 20.2908 14.6816 20.3528C12.3033 20.4447 8.354 19.8193 4.44308 15.8378C0.53212 11.8562 -0.0820835 7.83572 0.0080731 5.41437C0.0689242 3.78047 0.981565 2.39008 2.0087 1.34441ZM7.00942 2.82771C6.32471 1.57878 4.4849 1.29185 3.22099 2.57858C2.33479 3.48077 1.75867 4.47658 1.72129 5.4805C1.64609 7.49972 2.13578 11.0205 5.65537 14.6036C9.17499 18.1867 12.6332 18.6852 14.6167 18.6086C15.6029 18.5706 16.581 17.9841 17.4672 17.0819C18.731 15.7952 18.4492 13.9222 17.2224 13.2252L15.8933 12.47C15.0665 12.0001 13.905 12.1605 13.0897 12.9905C13.0096 13.0719 12.4999 13.5562 11.5953 13.601C10.6692 13.6468 9.54828 13.2232 8.27982 11.9318C7.01091 10.64 6.59487 9.49854 6.64025 8.5556C6.6846 7.63459 7.1603 7.1161 7.23985 7.03505C8.05512 6.20504 8.21262 5.02264 7.7512 4.18089L7.00942 2.82771Z" fill="#F3F3F3"/>
</svg>
