<svg width="24" height="24" viewBox="0 0 24 24" fill="none" xmlns="http://www.w3.org/2000/svg">
<g clip-path="url(#clip0_1450_2188)">
<path d="M19 5V19H5V5H19ZM19 3H5C4.46957 3 3.96086 3.21071 3.58579 3.58579C3.21071 3.96086 3 4.46957 3 5V19C3 19.5304 3.21071 20.0391 3.58579 20.4142C3.96086 20.7893 4.46957 21 5 21H19C19.5304 21 20.0391 20.7893 20.4142 20.4142C20.7893 20.0391 21 19.5304 21 19V5C21 4.46957 20.7893 3.96086 20.4142 3.58579C20.0391 3.21071 19.5304 3 19 3Z" fill="#F2F2F2"/>
<path d="M12.1097 10.47C12.1312 10.8327 12.0705 11.1957 11.9319 11.5316C11.7934 11.8676 11.5807 12.1678 11.3097 12.41C10.6646 12.8966 9.86585 13.1344 9.05969 13.08H8.34969V15.87H6.67969V7.99998H9.18969C9.96323 7.94691 10.7309 8.16626 11.3597 8.61998C11.6205 8.84837 11.8241 9.13467 11.9544 9.45592C12.0846 9.77718 12.1378 10.1245 12.1097 10.47ZM8.34969 11.72H8.88969C9.2835 11.7396 9.67304 11.6308 9.99969 11.41C10.1317 11.3068 10.2356 11.1722 10.302 11.0185C10.3684 10.8647 10.3951 10.6967 10.3797 10.53C10.3943 10.3703 10.3731 10.2094 10.3178 10.0589C10.2624 9.90841 10.1743 9.77214 10.0597 9.65998C9.76994 9.45135 9.41564 9.35215 9.05969 9.37998H8.34969V11.72Z" fill="#F2F2F2"/>
<path d="M17.3194 14.0901C17.3336 14.3592 17.2829 14.6278 17.1715 14.8732C17.0601 15.1186 16.8913 15.3336 16.6794 15.5001C16.1062 15.8589 15.434 16.027 14.7594 15.9801C14.384 15.9852 14.009 15.955 13.6394 15.8901C13.3404 15.8367 13.0485 15.7495 12.7694 15.6301V14.2801C13.0923 14.4271 13.4268 14.5475 13.7694 14.6401C14.0965 14.7235 14.4319 14.7704 14.7694 14.7801C15.3594 14.7801 15.6594 14.6101 15.6594 14.2701C15.6617 14.2114 15.6523 14.1529 15.6317 14.0979C15.6111 14.043 15.5797 13.9927 15.5394 13.9501C15.4215 13.8391 15.2864 13.7479 15.1394 13.6801L14.3594 13.3201C14.005 13.182 13.6691 13.0006 13.3594 12.7801C13.1603 12.6336 12.9991 12.4415 12.8894 12.2201C12.7833 11.9705 12.7321 11.7011 12.7394 11.4301C12.73 11.1879 12.7819 10.9473 12.8903 10.7305C12.9987 10.5138 13.16 10.3279 13.3594 10.1901C13.8878 9.86828 14.5016 9.71483 15.1194 9.75007C15.8497 9.75049 16.5707 9.91451 17.2294 10.2301L16.7394 11.4101C16.4654 11.2883 16.1849 11.1814 15.8994 11.0901C15.6402 11.0104 15.3705 10.97 15.0994 10.9701C14.6094 10.9701 14.3694 11.1001 14.3694 11.3601C14.3735 11.4386 14.3978 11.5148 14.4398 11.5814C14.4818 11.6479 14.5402 11.7025 14.6094 11.7401C14.9259 11.933 15.2609 12.0938 15.6094 12.2201C15.9617 12.3583 16.2972 12.5361 16.6094 12.7501C16.8122 12.8994 16.9768 13.0947 17.0894 13.3201C17.2272 13.5544 17.3061 13.8186 17.3194 14.0901Z" fill="#F2F2F2"/>
</g>
<defs>
<clipPath id="clip0_1450_2188">
<rect width="24" height="24" fill="white"/>
</clipPath>
</defs>
</svg>
