<svg width="24" height="24" viewBox="0 0 24 24" fill="none" xmlns="http://www.w3.org/2000/svg">
<path d="M10.1235 11.9999H4.5C3.9825 11.9999 3.5625 12.4192 3.5625 12.9374V22.3094C3.5625 22.8269 3.98175 23.2469 4.5 23.2469H11.0603V12.9374C11.0603 12.4199 10.641 11.9999 10.1228 11.9999H10.1235ZM14.8095 6.37641H9.186C8.6685 6.37641 8.2485 6.79566 8.2485 7.31391V11.5312H10.1228C10.899 11.5319 11.5275 12.1612 11.5283 12.9367V23.2462H15.7455V7.31316C15.7455 6.79566 15.3263 6.37566 14.808 6.37566L14.8095 6.37641ZM20.433 1.69041V22.3094C20.433 22.8269 20.0138 23.2469 19.4955 23.2469H16.215V7.31391C16.2143 6.53766 15.585 5.90916 14.8095 5.90841H12.9353V1.69116C12.9353 1.17366 13.3545 0.753662 13.8728 0.753662H19.4963C20.0138 0.753662 20.4338 1.17291 20.4338 1.69116L20.433 1.69041Z" fill="#1c1c1c"/>
</svg>
