<svg width="24" height="24" viewBox="0 0 24 24" fill="none" xmlns="http://www.w3.org/2000/svg">
<path d="M19.7608 3.67969L7.54987 1.52344C7.15814 1.4545 6.75508 1.54397 6.42931 1.77217C6.10354 2.00037 5.88174 2.34861 5.81268 2.74031L3.02362 18.5841C2.98951 18.7782 2.99398 18.9771 3.03677 19.1694C3.07957 19.3618 3.15985 19.5439 3.27303 19.7052C3.38621 19.8665 3.53008 20.004 3.6964 20.1097C3.86273 20.2154 4.04825 20.2873 4.24237 20.3213L16.4533 22.4775C16.6475 22.5117 16.8465 22.5074 17.039 22.4647C17.2314 22.4219 17.4136 22.3417 17.575 22.2285C17.7365 22.1153 17.874 21.9714 17.9798 21.805C18.0855 21.6386 18.1575 21.453 18.1914 21.2588L20.9805 5.415C21.0488 5.02315 20.9587 4.6202 20.73 4.29478C20.5013 3.96936 20.1526 3.74811 19.7608 3.67969ZM12.7033 12.3338C12.6727 12.5073 12.582 12.6644 12.4471 12.7777C12.3122 12.8911 12.1417 12.9533 11.9655 12.9534C11.9215 12.9534 11.8776 12.9497 11.8342 12.9422L7.94362 12.255C7.75872 12.2095 7.59804 12.0954 7.49417 11.9358C7.3903 11.7762 7.35102 11.5831 7.38429 11.3956C7.41757 11.2082 7.52091 11.0404 7.67335 10.9263C7.82579 10.8122 8.01592 10.7603 8.20518 10.7813L12.0939 11.4647C12.191 11.4817 12.2838 11.5176 12.367 11.5705C12.4502 11.6234 12.5222 11.6922 12.5788 11.7729C12.6354 11.8536 12.6755 11.9447 12.6969 12.0409C12.7182 12.1372 12.7204 12.2367 12.7033 12.3338ZM17.1096 10.0669C17.079 10.2402 16.9884 10.3973 16.8537 10.5106C16.719 10.6239 16.5487 10.6862 16.3727 10.6866C16.3283 10.6867 16.2841 10.6826 16.2405 10.6744L8.45925 9.30094C8.26332 9.26625 8.08919 9.15516 7.97517 8.99209C7.86116 8.82902 7.81659 8.62734 7.85128 8.43141C7.88596 8.23548 7.99706 8.06135 8.16013 7.94734C8.3232 7.83332 8.52488 7.78875 8.72081 7.82344L16.5021 9.19781C16.5992 9.21469 16.6922 9.25057 16.7755 9.30341C16.8588 9.35625 16.9308 9.425 16.9875 9.50573C17.0442 9.58645 17.0844 9.67757 17.1058 9.77386C17.1273 9.87015 17.1295 9.96973 17.1124 10.0669H17.1096ZM17.6299 7.11188C17.5993 7.28538 17.5085 7.44256 17.3736 7.55587C17.2387 7.66918 17.0682 7.73138 16.8921 7.73156C16.8481 7.7315 16.8042 7.72774 16.7608 7.72031L8.97956 6.34594C8.88033 6.33134 8.78504 6.29698 8.69933 6.2449C8.61361 6.19282 8.53921 6.12408 8.48053 6.04274C8.42185 5.96141 8.38008 5.86912 8.35769 5.77136C8.3353 5.6736 8.33275 5.57233 8.35018 5.47357C8.36761 5.3748 8.40468 5.28053 8.45919 5.19634C8.51369 5.11214 8.58453 5.03974 8.66751 4.98341C8.75049 4.92708 8.84393 4.88796 8.94229 4.86837C9.04066 4.84879 9.14195 4.84913 9.24018 4.86938L17.0214 6.24281C17.1187 6.25958 17.2117 6.29539 17.2951 6.34818C17.3785 6.40097 17.4507 6.4697 17.5075 6.55044C17.5643 6.63118 17.6046 6.72233 17.626 6.81868C17.6475 6.91502 17.6498 7.01466 17.6327 7.11188H17.6299Z" fill="#F3F3F3"/>
</svg>
