<svg width="189" height="114" viewBox="0 0 189 114" fill="none" xmlns="http://www.w3.org/2000/svg">
<path d="M41.368 66V43.6H48.6C50.3493 43.6 51.7787 43.888 52.888 44.464C53.9973 45.04 54.8187 45.8293 55.352 46.832C55.8853 47.8347 56.152 48.944 56.152 50.16C56.152 51.568 55.768 52.8373 55 53.968C54.2533 55.0987 53.08 55.8987 51.48 56.368L56.376 66H53.208L48.664 56.752H48.472H44.056V66H41.368ZM44.056 54.64H48.408C50.136 54.64 51.3947 54.224 52.184 53.392C52.9733 52.56 53.368 51.4933 53.368 50.192C53.368 48.8693 52.9733 47.824 52.184 47.056C51.416 46.2667 50.1467 45.872 48.376 45.872H44.056V54.64ZM66.344 66.384C64.8293 66.384 63.4853 66.0427 62.312 65.36C61.1387 64.656 60.2107 63.6853 59.528 62.448C58.8667 61.2107 58.536 59.7493 58.536 58.064C58.536 56.4 58.8667 54.9493 59.528 53.712C60.1893 52.4533 61.1067 51.4827 62.28 50.8C63.4747 50.096 64.8507 49.744 66.408 49.744C67.944 49.744 69.2667 50.096 70.376 50.8C71.5067 51.4827 72.3707 52.3893 72.968 53.52C73.5653 54.6507 73.864 55.8667 73.864 57.168C73.864 57.4027 73.8533 57.6373 73.832 57.872C73.832 58.1067 73.832 58.3733 73.832 58.672H61.192C61.256 59.888 61.5333 60.9013 62.024 61.712C62.536 62.5013 63.1653 63.0987 63.912 63.504C64.68 63.9093 65.4907 64.112 66.344 64.112C67.4533 64.112 68.3813 63.856 69.128 63.344C69.8747 62.832 70.4187 62.1387 70.76 61.264H73.416C72.9893 62.736 72.168 63.9627 70.952 64.944C69.7573 65.904 68.2213 66.384 66.344 66.384ZM66.344 52.016C65.064 52.016 63.9227 52.4107 62.92 53.2C61.9387 53.968 61.3733 55.0987 61.224 56.592H71.208C71.144 55.1627 70.6533 54.0427 69.736 53.232C68.8187 52.4213 67.688 52.016 66.344 52.016ZM83.5068 66.384C81.6081 66.384 80.0294 65.904 78.7708 64.944C77.5121 63.984 76.7761 62.6827 76.5628 61.04H79.3148C79.4854 61.872 79.9228 62.5973 80.6268 63.216C81.3521 63.8133 82.3228 64.112 83.5388 64.112C84.6694 64.112 85.5014 63.8773 86.0348 63.408C86.5681 62.9173 86.8348 62.3413 86.8348 61.68C86.8348 60.72 86.4828 60.08 85.7788 59.76C85.0961 59.44 84.1254 59.152 82.8668 58.896C82.0134 58.7253 81.1601 58.48 80.3068 58.16C79.4534 57.84 78.7388 57.392 78.1628 56.816C77.5868 56.2187 77.2988 55.44 77.2988 54.48C77.2988 53.0933 77.8108 51.9627 78.8348 51.088C79.8801 50.192 81.2881 49.744 83.0588 49.744C84.7441 49.744 86.1201 50.1707 87.1868 51.024C88.2748 51.856 88.9041 53.0507 89.0748 54.608H86.4188C86.3121 53.7973 85.9601 53.168 85.3628 52.72C84.7868 52.2507 84.0081 52.016 83.0268 52.016C82.0668 52.016 81.3201 52.2187 80.7868 52.624C80.2748 53.0293 80.0188 53.5627 80.0188 54.224C80.0188 54.864 80.3494 55.3653 81.0108 55.728C81.6934 56.0907 82.6108 56.4 83.7628 56.656C84.7441 56.8693 85.6721 57.136 86.5468 57.456C87.4428 57.7547 88.1681 58.2133 88.7228 58.832C89.2988 59.4293 89.5868 60.304 89.5868 61.456C89.6081 62.8853 89.0641 64.0693 87.9548 65.008C86.8668 65.9253 85.3841 66.384 83.5068 66.384ZM99.2188 66.384C97.3414 66.384 95.8481 65.8187 94.7388 64.688C93.6294 63.536 93.0748 61.776 93.0748 59.408V50.128H95.7628V59.12C95.7628 62.4267 97.1174 64.08 99.8268 64.08C101.213 64.08 102.355 63.5893 103.251 62.608C104.168 61.6053 104.627 60.1867 104.627 58.352V50.128H107.315V66H104.883L104.691 63.152C104.2 64.1547 103.464 64.944 102.483 65.52C101.523 66.096 100.435 66.384 99.2188 66.384ZM111.739 66V50.128H114.171L114.363 52.432C114.875 51.5787 115.558 50.9173 116.411 50.448C117.265 49.9787 118.225 49.744 119.291 49.744C120.55 49.744 121.627 50 122.523 50.512C123.441 51.024 124.145 51.8027 124.635 52.848C125.19 51.888 125.947 51.1307 126.907 50.576C127.889 50.0213 128.945 49.744 130.075 49.744C131.974 49.744 133.489 50.32 134.619 51.472C135.75 52.6027 136.315 54.352 136.315 56.72V66H133.659V57.008C133.659 55.3653 133.329 54.128 132.667 53.296C132.006 52.464 131.057 52.048 129.819 52.048C128.539 52.048 127.473 52.5493 126.619 53.552C125.787 54.5333 125.371 55.9413 125.371 57.776V66H122.683V57.008C122.683 55.3653 122.353 54.128 121.691 53.296C121.03 52.464 120.081 52.048 118.843 52.048C117.585 52.048 116.529 52.5493 115.675 53.552C114.843 54.5333 114.427 55.9413 114.427 57.776V66H111.739ZM147.5 66.384C145.986 66.384 144.642 66.0427 143.468 65.36C142.295 64.656 141.367 63.6853 140.684 62.448C140.023 61.2107 139.692 59.7493 139.692 58.064C139.692 56.4 140.023 54.9493 140.684 53.712C141.346 52.4533 142.263 51.4827 143.436 50.8C144.631 50.096 146.007 49.744 147.564 49.744C149.1 49.744 150.423 50.096 151.532 50.8C152.663 51.4827 153.527 52.3893 154.124 53.52C154.722 54.6507 155.02 55.8667 155.02 57.168C155.02 57.4027 155.01 57.6373 154.988 57.872C154.988 58.1067 154.988 58.3733 154.988 58.672H142.348C142.412 59.888 142.69 60.9013 143.18 61.712C143.692 62.5013 144.322 63.0987 145.068 63.504C145.836 63.9093 146.647 64.112 147.5 64.112C148.61 64.112 149.538 63.856 150.284 63.344C151.031 62.832 151.575 62.1387 151.916 61.264H154.572C154.146 62.736 153.324 63.9627 152.108 64.944C150.914 65.904 149.378 66.384 147.5 66.384ZM147.5 52.016C146.22 52.016 145.079 52.4107 144.076 53.2C143.095 53.968 142.53 55.0987 142.38 56.592H152.364C152.3 55.1627 151.81 54.0427 150.892 53.232C149.975 52.4213 148.844 52.016 147.5 52.016Z" fill="#F3F3F3"/>
</svg>
