<svg width="24" height="24" viewBox="0 0 24 24" fill="none" xmlns="http://www.w3.org/2000/svg">
<g clip-path="url(#clip0_1684_4982)">
<path d="M12.1756 0.00199885C10.5701 -0.0213257 8.97619 0.277751 7.48833 0.881519C6.00047 1.48529 4.64888 2.38147 3.51361 3.517C1.26383 5.76767 0 8.8197 0 12.002C0 15.1843 1.26383 18.2363 3.51361 20.487C5.76428 22.7368 8.81631 24.0006 11.9986 24.0006C15.1809 24.0006 18.2329 22.7368 20.4836 20.487C22.7334 18.2363 23.9972 15.1843 23.9972 12.002C23.9972 8.8197 22.7334 5.76767 20.4836 3.517C18.277 1.3098 15.2963 0.0490025 12.1756 0.00199885ZM7.76761 5.995C8.32961 6.123 8.81761 6.212 9.43061 6.212C10.3516 6.212 11.2936 5.995 12.2166 5.995C14.0066 5.995 15.6666 6.809 15.6666 8.795C15.6666 10.335 14.7456 11.312 13.3166 11.725L16.1046 15.832H17.4056V16.842H15.4196L12.1266 11.908H10.3696V15.832H12.0876V16.842H7.76761V15.832H9.25061V7.134L7.76761 6.951V5.995ZM12.2336 7.007C11.6376 7.007 11.0206 7.06 10.3696 7.134V10.932L11.3106 10.952C13.6086 10.986 14.4936 10.102 14.4936 8.926C14.4936 7.55 13.4966 7.007 12.2336 7.007Z" fill="#1c1c1c"/>
</g>
<defs>
<clipPath id="clip0_1684_4982">
<rect width="24" height="24" fill="white"/>
</clipPath>
</defs>
</svg>
