<svg width="24" height="24" viewBox="0 0 24 24" fill="none" xmlns="http://www.w3.org/2000/svg">
<g clip-path="url(#clip0_1466_1911)">
<path d="M11.4072 11.312C10.6272 11.189 10.2092 10.658 10.4172 9.017L10.4402 8.819C10.6152 7.393 10.7612 7.076 11.4362 7.113C11.6342 7.126 11.8622 7.253 12.0902 7.443C12.3012 7.69 12.7702 8.011 13.0352 8.647C13.2252 9.113 13.2892 9.417 13.3162 9.745L13.3582 10.147V10.145C13.3851 10.304 13.4677 10.4482 13.5912 10.5519C13.7146 10.6556 13.8709 10.7121 14.0321 10.7113C14.1934 10.7104 14.3491 10.6523 14.4714 10.5473C14.5938 10.4423 14.6749 10.2972 14.7002 10.138C14.7082 10.094 14.8762 5.773 14.8762 5.702C14.8762 5.322 14.5742 5.012 14.1962 5.006C14.1062 5.00639 14.0172 5.0245 13.9343 5.05929C13.8513 5.09408 13.776 5.14486 13.7127 5.20875C13.6494 5.27264 13.5992 5.34837 13.5652 5.43163C13.5311 5.51489 13.5138 5.60404 13.5142 5.694C13.5142 5.703 13.5132 6.299 13.5002 6.9C12.9642 6.308 12.2772 5.777 11.5062 5.73C9.44817 5.62 9.22318 7.541 9.08717 8.648L9.06717 8.844C8.78917 11.033 9.50817 12.413 11.1972 12.681C13.0352 12.974 14.2602 13.401 14.2712 14.549C14.2782 14.995 14.0472 15.452 13.6442 15.803C13.407 16.0096 13.1277 16.162 12.8256 16.2495C12.5236 16.3371 12.206 16.3577 11.8952 16.31C11.7118 16.2786 11.5314 16.2314 11.3562 16.169C11.1162 16.033 10.5092 15.659 10.2022 15.227C9.94217 14.863 9.85217 14.29 9.82417 13.927C9.82817 13.764 9.82917 13.657 9.82917 13.644C9.83268 13.4623 9.7644 13.2866 9.63914 13.155C9.51389 13.0234 9.34178 12.9465 9.16017 12.941C9.06969 12.9401 8.97991 12.957 8.89597 12.9908C8.81202 13.0245 8.73555 13.0745 8.67092 13.1378C8.60629 13.2012 8.55476 13.2766 8.51929 13.3599C8.48382 13.4431 8.46509 13.5325 8.46417 13.623C8.46417 13.636 8.44718 14.99 8.39817 15.806C8.32818 17.119 8.39817 18.232 8.39817 18.28C8.42618 18.662 8.74817 18.95 9.12517 18.924C9.21522 18.9182 9.30321 18.8945 9.38404 18.8544C9.46486 18.8143 9.53691 18.7585 9.59599 18.6903C9.65507 18.6221 9.70001 18.5429 9.7282 18.4571C9.75638 18.3714 9.76725 18.281 9.76017 18.191C9.76017 18.185 9.72717 17.646 9.73117 16.901C10.3184 17.2867 10.9777 17.5496 11.6692 17.674C12.1762 17.7587 12.6958 17.729 13.1899 17.5871C13.6841 17.4453 14.1403 17.1948 14.5252 16.854C15.2382 16.235 15.6472 15.39 15.6352 14.534C15.6112 11.979 12.7702 11.53 11.4072 11.312ZM14.1752 0C13.2199 0.000781366 12.2811 0.249932 11.4512 0.723H11.3392C8.70217 0.723 6.40217 2.115 5.18917 4.451C4.46117 5.844 4.28917 7.201 4.19017 8.03C4.17817 8.119 4.17217 8.2 4.16217 8.292C4.04217 9.266 4.03917 10.196 4.15217 11.064C3.75556 11.849 3.54188 12.7136 3.52717 13.593V13.609C3.51894 14.2593 3.49993 14.9094 3.47017 15.559C3.41901 16.5383 3.41634 17.5195 3.46217 18.499L3.47517 18.708C3.69917 21.676 6.16017 24 9.08417 24C10.3427 24.0036 11.5647 23.5766 12.5472 22.79C14.4664 22.7143 16.301 21.9797 17.7422 20.71C19.5682 19.123 20.6012 16.865 20.5722 14.52C20.5592 13.158 20.2262 11.882 19.5942 10.757C19.7112 9.484 19.8152 5.761 19.8152 5.727C19.8152 2.624 17.3312 0.057 14.2762 0L14.1752 0ZM14.2312 2.675C15.8732 2.705 17.2092 4.087 17.2092 5.756C17.2092 5.794 17.0642 10.253 16.9942 10.639C16.9531 10.876 16.8849 11.1075 16.7912 11.329C17.5472 12.219 17.9562 13.329 17.9662 14.585C17.9872 16.14 17.2852 17.661 16.0402 18.745C14.991 19.6719 13.6402 20.1852 12.2402 20.189C12.0001 20.1874 11.7603 20.1714 11.5222 20.141C11.4678 20.215 11.4104 20.2867 11.3502 20.356C11.0704 20.6826 10.7231 20.9446 10.3322 21.1238C9.94134 21.303 9.51619 21.3952 9.08617 21.394C7.51317 21.394 6.18917 20.139 6.07317 18.538L6.06517 18.416C6.02366 17.5291 6.02533 16.6407 6.07017 15.754C6.10917 15.075 6.13017 13.923 6.13217 13.674C6.14268 12.9271 6.42047 12.2087 6.91517 11.649C6.67817 10.814 6.60317 9.813 6.74817 8.629L6.77217 8.417C6.85517 7.722 6.98017 6.697 7.49217 5.717C8.25717 4.244 9.66017 3.399 11.3402 3.399C11.6164 3.39737 11.8922 3.4208 12.1642 3.469C12.7102 2.969 13.4342 2.659 14.2312 2.675Z" fill="#F2F2F2"/>
</g>
<defs>
<clipPath id="clip0_1466_1911">
<rect width="24" height="24" fill="white"/>
</clipPath>
</defs>
</svg>
