<svg width="24" height="24" viewBox="0 0 24 24" fill="none" xmlns="http://www.w3.org/2000/svg">
<mask id="mask0_847_337" style="mask-type:alpha" maskUnits="userSpaceOnUse" x="0" y="0" width="24" height="24">
<rect width="24" height="24" fill="#D9D9D9"/>
</mask>
<g mask="url(#mask0_847_337)">
<path d="M16 20V11H4V20H16ZM18 15V13H20V4H8V9H6V4C6 3.45 6.19583 2.97917 6.5875 2.5875C6.97917 2.19583 7.45 2 8 2H20C20.55 2 21.0208 2.19583 21.4125 2.5875C21.8042 2.97917 22 3.45 22 4V13C22 13.55 21.8042 14.0208 21.4125 14.4125C21.0208 14.8042 20.55 15 20 15H18ZM4 22C3.45 22 2.97917 21.8042 2.5875 21.4125C2.19583 21.0208 2 20.55 2 20V11C2 10.45 2.19583 9.97917 2.5875 9.5875C2.97917 9.19583 3.45 9 4 9H16C16.55 9 17.0208 9.19583 17.4125 9.5875C17.8042 9.97917 18 10.45 18 11V20C18 20.55 17.8042 21.0208 17.4125 21.4125C17.0208 21.8042 16.55 22 16 22H4Z" fill="#F3F3F3"/>
</g>
</svg>
