<svg width="190" height="252" viewBox="0 0 190 252" fill="none" xmlns="http://www.w3.org/2000/svg">
<path d="M126 97.5109C115.554 86.5653 107.281 72.444 101.849 56.4011C97.6701 44.0347 91.6531 21.2238 91.6531 17.6309C91.6531 12.0326 81.6247 9.77666 81.6247 20.639C81.6247 26.2373 77.9476 58.7408 66.7494 78.2095C56.136 96.7589 52.0411 101.522 44.6034 104.698C40.3413 106.452 41.0098 107.788 47.0268 109.877C61.9022 115.058 68.5879 127.508 82.0426 174.968C89.8981 202.542 94.7452 201.706 98.8401 172.043C102.851 142.548 117.727 109.042 128.34 105.365C131.85 104.195 131.6 103.443 126 97.5109ZM90.901 150.82L89.3132 158.34C88.6446 156.585 79.9533 119.737 64.6601 109.877C60.4816 107.203 59.7295 106.117 62.153 106.117C69.925 106.117 82.0426 85.4789 85.7197 65.5924C87.4746 56.4847 87.7253 56.1505 89.8981 61.8323C94.4109 73.9481 101.849 85.3952 112.044 96.0069L118.73 103.026C117.81 104.113 99.0073 111.465 90.901 150.82Z" fill="#C9B7FF"/>
<path d="M186.255 195.94C173.135 185.245 163.524 166.279 163.524 150.653C163.524 143.802 154.415 135.947 150.989 155.415C146.81 179.563 144.052 186.164 134.609 195.606C126.837 203.293 126.753 202.792 136.531 205.466C145.64 207.973 152.409 220.006 156.838 241.647C159.596 255.099 169.541 255.683 169.959 241.98C170.544 222.679 174.973 211.9 185.002 205.549C191.353 201.455 191.52 200.202 186.255 195.94ZM176.227 200.37C173.302 201.372 165.363 208.307 163.524 211.315C161.017 215.576 161.101 215.576 158.176 210.897C155.668 206.886 149.735 202.458 145.807 201.706C142.799 201.037 142.882 200.871 147.729 196.108C150.069 193.852 153.329 189.256 155 185.914C158.761 178.644 158.259 178.729 161.853 184.494C164.61 188.839 169.123 193.601 174.806 198.113C176.394 199.199 176.895 200.119 176.227 200.37Z" fill="#AE92FF"/>
<path d="M29.0094 170.619C22.3651 165.135 17.4982 155.41 17.4982 147.398C17.4982 143.885 12.8852 139.857 11.1501 149.84C9.03405 162.221 7.63747 165.606 2.85523 170.447C-1.08059 174.389 -1.12291 174.132 3.82861 175.503C8.44156 176.788 11.8695 182.958 14.1125 194.054C15.5091 200.952 20.5453 201.252 20.7569 194.225C21.0531 184.329 23.2961 178.802 28.3746 175.546C31.591 173.446 31.6756 172.804 29.0094 170.619ZM23.9309 172.89C22.4497 173.404 18.4292 176.96 17.4982 178.502C16.2286 180.687 16.2709 180.687 14.7897 178.288C13.52 176.231 10.5153 173.961 8.5262 173.575C7.00266 173.232 7.04498 173.147 9.49958 170.705C10.6846 169.548 12.3351 167.191 13.1815 165.478C15.0859 161.75 14.832 161.793 16.6518 164.75C18.0484 166.977 20.3337 169.419 23.2115 171.733C24.0156 172.29 24.2695 172.761 23.9309 172.89Z" fill="#8960FF"/>
<path d="M134.732 12.5718C131.731 10.0257 129.533 5.51053 129.533 1.79082C129.533 0.159723 127.45 -1.71028 126.666 2.92444C125.711 8.67307 125.08 10.2445 122.92 12.4922C121.143 14.3222 121.124 14.2029 123.36 14.8394C125.443 15.4362 126.991 18.3007 128.004 23.4526C128.635 26.6552 130.909 26.7942 131.005 23.532C131.139 18.9371 132.152 16.3711 134.445 14.8593C135.898 13.8846 135.936 13.5863 134.732 12.5718ZM132.438 13.6262C131.769 13.8649 129.954 15.5157 129.533 16.2318C128.96 17.2463 128.979 17.2463 128.31 16.1324C127.737 15.1776 126.38 14.1233 125.481 13.9443C124.793 13.7852 124.812 13.7456 125.921 12.6118C126.456 12.0747 127.202 10.9805 127.584 10.1848C128.444 8.45426 128.329 8.47436 129.151 9.84687C129.782 10.8812 130.814 12.0148 132.113 13.089C132.477 13.3476 132.591 13.5666 132.438 13.6262Z" fill="white"/>
</svg>
