<svg width="16" height="17" viewBox="0 0 16 17" fill="none" xmlns="http://www.w3.org/2000/svg">
<path d="M13.7502 11.068L8.0002 14.4211L2.2502 11.068C2.13635 11.0113 2.00518 11.0002 1.88339 11.0368C1.76159 11.0734 1.65833 11.155 1.59462 11.2651C1.5309 11.3752 1.51153 11.5054 1.54043 11.6292C1.56933 11.7531 1.64434 11.8613 1.7502 11.9318L7.7502 15.4318C7.82665 15.4763 7.91357 15.4998 8.00207 15.4998C8.09058 15.4998 8.17749 15.4763 8.25395 15.4318L14.2539 11.9318C14.3116 11.8992 14.3622 11.8554 14.4027 11.8031C14.4433 11.7508 14.4731 11.691 14.4904 11.627C14.5077 11.5631 14.5121 11.4964 14.5034 11.4308C14.4947 11.3651 14.473 11.3019 14.4396 11.2447C14.4063 11.1875 14.3619 11.1375 14.3091 11.0976C14.2562 11.0577 14.196 11.0287 14.1319 11.0122C14.0677 10.9958 14.0009 10.9923 13.9354 11.0018C13.8699 11.0114 13.807 11.0339 13.7502 11.068Z" fill="#F2F2F2"/>
<path d="M13.7502 8.06801L8.0002 11.4211L2.2502 8.06801C2.13635 8.01133 2.00518 8.00016 1.88339 8.03677C1.76159 8.07339 1.65833 8.15504 1.59462 8.26511C1.5309 8.37517 1.51153 8.50538 1.54043 8.62923C1.56933 8.75308 1.64434 8.86127 1.7502 8.93176L7.7502 12.4318C7.82665 12.4763 7.91357 12.4998 8.00207 12.4998C8.09058 12.4998 8.17749 12.4763 8.25395 12.4318L14.2539 8.93176C14.3116 8.89916 14.3622 8.85543 14.4027 8.80312C14.4433 8.75081 14.4731 8.69096 14.4904 8.62704C14.5077 8.56312 14.5121 8.49641 14.5034 8.43077C14.4947 8.36513 14.473 8.30188 14.4396 8.24469C14.4063 8.18749 14.3619 8.13749 14.3091 8.09758C14.2562 8.05768 14.196 8.02867 14.1319 8.01223C14.0677 7.9958 14.0009 7.99226 13.9354 8.00184C13.8699 8.01141 13.807 8.0339 13.7502 8.06801Z" fill="#F2F2F2"/>
<path d="M1.74999 5.93183L7.74999 9.43183C7.82645 9.47641 7.91336 9.4999 8.00187 9.4999C8.09037 9.4999 8.17729 9.47641 8.25374 9.43183L14.2537 5.93183C14.3292 5.88779 14.3918 5.82474 14.4354 5.74897C14.4789 5.67319 14.5018 5.58733 14.5018 5.49995C14.5018 5.41257 14.4789 5.32671 14.4354 5.25093C14.3918 5.17516 14.3292 5.11211 14.2537 5.06808L8.25374 1.56808C8.17729 1.52349 8.09037 1.5 8.00187 1.5C7.91336 1.5 7.82645 1.52349 7.74999 1.56808L1.74999 5.06808C1.67451 5.11211 1.6119 5.17516 1.56837 5.25093C1.52485 5.32671 1.50195 5.41257 1.50195 5.49995C1.50195 5.58733 1.52485 5.67319 1.56837 5.74897C1.6119 5.82474 1.67451 5.88779 1.74999 5.93183Z" fill="#F2F2F2"/>
</svg>
