<svg width="24" height="24" viewBox="0 0 24 24" fill="none" xmlns="http://www.w3.org/2000/svg">
<rect width="24" height="24" rx="6" fill="white"/>
<path d="M15.0756 5.41023C15.0756 4.92995 14.5378 4.92994 14.2988 4.98998C14.6334 4.72582 15.0258 4.78986 15.1652 4.86991L18.3964 6.45429C18.7043 6.60525 18.8996 6.91937 18.8996 7.2636V17.6865C18.8996 18.0353 18.6991 18.3528 18.385 18.5013L15.3445 19.939C15.1353 20.029 14.6812 20.2512 14.2988 19.939C14.7768 20.0291 15.0357 19.6889 15.0756 19.4587V5.41023Z" fill="#32B5F1"/>
<path d="M14.3376 4.98134C14.5913 4.93122 15.0756 4.95446 15.0756 5.41026V8.99795L5.27911 16.409C5.10787 16.5386 4.86689 16.5171 4.72104 16.3593L3.71137 15.2667C3.5532 15.0956 3.56427 14.8277 3.73601 14.6703L14.2988 4.99L14.3376 4.98134Z" fill="#0F6FB3"/>
<path d="M15.0756 15.9312L5.27911 8.5201C5.10787 8.39056 4.86689 8.41206 4.72104 8.56988L3.71137 9.66241C3.5532 9.83355 3.56427 10.1015 3.73601 10.2589L14.2988 19.9392C14.7768 20.0292 15.0358 19.689 15.0756 19.4588V15.9312Z" fill="#1791D2"/>
</svg>
