<svg width="24" height="24" viewBox="0 0 24 24" fill="none" xmlns="http://www.w3.org/2000/svg">
<path d="M18.2438 6.2317C18.2438 6.2317 16.2525 5.9812 11.976 5.9812C7.83825 5.9812 5.7555 6.2317 5.7555 6.2317C5.22354 6.2319 4.71343 6.44336 4.33735 6.81958C3.96127 7.19581 3.75 7.70599 3.75 8.23795V15.7635C3.7499 16.0269 3.8017 16.2878 3.90243 16.5313C4.00316 16.7747 4.15086 16.9959 4.33709 17.1823C4.52331 17.3687 4.74443 17.5165 4.9878 17.6174C5.23117 17.7184 5.49204 17.7704 5.7555 17.7705C5.7555 17.7705 7.692 18.0195 11.976 18.0195C16.2578 18.0195 18.2438 17.7705 18.2438 17.7705C18.5073 17.7706 18.7684 17.7189 19.0119 17.6181C19.2555 17.5173 19.4767 17.3694 19.6631 17.183C19.8494 16.9966 19.9972 16.7753 20.0979 16.5317C20.1986 16.2881 20.2503 16.027 20.25 15.7635V8.23645C20.25 7.97306 20.1981 7.71225 20.0973 7.46892C19.9964 7.22559 19.8486 7.00453 19.6623 6.81835C19.476 6.63217 19.2548 6.48453 19.0114 6.38387C18.768 6.28321 18.5071 6.2315 18.2438 6.2317ZM9.79575 14.9812V9.02245L15.1462 12L9.79575 14.9812Z" fill="#F2F2F2"/>
</svg>
